<?xml version="1.0" encoding="utf-8"?>
<!-- Generator: Adobe Illustrator 21.1.0, SVG Export Plug-In . SVG Version: 6.00 Build 0)  -->
<svg version="1.1" id="Layer_1" xmlns="http://www.w3.org/2000/svg" xmlns:xlink="http://www.w3.org/1999/xlink" x="0px" y="0px"
	 viewBox="0 0 354.5 70" style="enable-background:new 0 0 354.5 70;" xml:space="preserve">
<style type="text/css">
	.st0{fill:#231F20;}
	.st1{fill:#0D93D1;}
	.st2{fill:#0094D4;}
	.st3{fill:#FFFFFF;}
	.st4{fill:#FFC10E;}
	.st5{fill:#2DA34A;}
	.st6{fill:#EE4023;}
	.st7{fill:#FBBB80;}
</style>
<path class="st0" d="M18,14.7L18,14.7z"/>
<path class="st0" d="M18,14.7L18,14.7L18,14.7z"/>
<g>
	<g>
		<path class="st1" d="M55.9,37.6h6.7c4,0,6.5,2.3,6.5,5.7v0c0,3.8-3.1,5.8-6.8,5.8h-3.4v5.5h-3V37.6z M62.4,46.5
			c2.3,0,3.7-1.3,3.7-3.1v0c0-2-1.4-3.1-3.7-3.1h-3.5v6.2H62.4z"/>
		<path class="st1" d="M71.6,41.8h3v2.9c0.8-1.9,2.3-3.3,4.6-3.2v3.1H79c-2.6,0-4.4,1.7-4.4,5.1v4.9h-3V41.8z"/>
		<path class="st1" d="M80.8,48.3L80.8,48.3c0-3.7,2.6-6.8,6.3-6.8c4.1,0,6.2,3.2,6.2,6.9c0,0.3,0,0.5,0,0.8h-9.5
			c0.3,2.1,1.8,3.3,3.7,3.3c1.4,0,2.5-0.5,3.5-1.5l1.7,1.5C91.5,54,89.8,55,87.4,55C83.7,55,80.8,52.3,80.8,48.3z M90.3,47.3
			c-0.2-1.9-1.3-3.4-3.3-3.4c-1.8,0-3.1,1.4-3.3,3.4H90.3z"/>
		<path class="st1" d="M94.9,53l1.3-2c1.4,1.1,2.9,1.6,4.2,1.6c1.3,0,2-0.5,2-1.4v0c0-1-1.4-1.3-2.9-1.8c-1.9-0.5-4-1.3-4-3.8v0
			c0-2.4,2-3.9,4.6-3.9c1.6,0,3.4,0.6,4.7,1.5l-1.2,2.1c-1.2-0.8-2.6-1.2-3.6-1.2c-1.1,0-1.8,0.5-1.8,1.3v0c0,0.9,1.4,1.3,2.9,1.8
			c1.9,0.6,4,1.4,4,3.8v0c0,2.7-2.1,4.1-4.8,4.1C98.6,54.9,96.6,54.3,94.9,53z"/>
		<path class="st1" d="M108,37h3.2v2.8H108V37z M108.1,41.8h3v12.9h-3V41.8z"/>
		<path class="st1" d="M114.1,48.3L114.1,48.3c0-4.3,2.9-6.7,6-6.7c2.1,0,3.5,1.1,4.4,2.3v-6.9h3v17.8h-3v-2.2
			c-1,1.3-2.3,2.4-4.4,2.4C117,55,114.1,52.5,114.1,48.3z M124.5,48.3L124.5,48.3c0-2.5-1.8-4.2-3.7-4.2c-2,0-3.7,1.6-3.7,4.1v0
			c0,2.5,1.7,4.1,3.7,4.1C122.7,52.4,124.5,50.7,124.5,48.3z"/>
		<path class="st1" d="M130.1,48.3L130.1,48.3c0-3.7,2.6-6.8,6.3-6.8c4.1,0,6.2,3.2,6.2,6.9c0,0.3,0,0.5,0,0.8h-9.5
			c0.3,2.1,1.8,3.3,3.7,3.3c1.4,0,2.5-0.5,3.5-1.5l1.7,1.5c-1.2,1.5-2.9,2.4-5.3,2.4C133,55,130.1,52.3,130.1,48.3z M139.7,47.3
			c-0.2-1.9-1.3-3.4-3.3-3.4c-1.8,0-3.1,1.4-3.3,3.4H139.7z"/>
		<path class="st1" d="M145.4,41.8h3v2c0.8-1.2,2-2.3,4-2.3c2.9,0,4.6,2,4.6,5v8.2h-3v-7.3c0-2-1-3.2-2.8-3.2
			c-1.7,0-2.9,1.2-2.9,3.2v7.3h-3V41.8z"/>
		<path class="st1" d="M159.6,48.3L159.6,48.3c0-3.7,2.8-6.8,6.7-6.8c2.4,0,4,0.9,5.2,2.2l-1.8,2c-0.9-1-1.9-1.6-3.3-1.6
			c-2.2,0-3.7,1.9-3.7,4.1v0c0,2.3,1.6,4.2,3.9,4.2c1.4,0,2.4-0.7,3.3-1.6l1.8,1.8c-1.3,1.4-2.8,2.4-5.3,2.4
			C162.4,55,159.6,52,159.6,48.3z"/>
		<path class="st1" d="M174,37h3.2v2.8H174V37z M174.2,41.8h3v12.9h-3V41.8z"/>
		<path class="st1" d="M188.6,54.7v-1.6c-0.9,1.1-2.2,1.9-4.2,1.9c-2.4,0-4.6-1.4-4.6-4v0c0-2.9,2.2-4.2,5.2-4.2
			c1.6,0,2.6,0.2,3.6,0.5V47c0-1.8-1.1-2.8-3.2-2.8c-1.4,0-2.5,0.3-3.7,0.8l-0.8-2.4c1.4-0.6,2.8-1.1,4.9-1.1c3.8,0,5.7,2,5.7,5.5
			v7.6H188.6z M188.7,49.3c-0.8-0.3-1.8-0.5-3-0.5c-1.9,0-3,0.8-3,2v0c0,1.2,1.1,1.9,2.5,1.9c2,0,3.4-1.1,3.4-2.7V49.3z"/>
		<path class="st1" d="M201.3,48.3L201.3,48.3c0-4.3,2.9-6.7,6-6.7c2.1,0,3.5,1.1,4.4,2.3v-6.9h3v17.8h-3v-2.2
			c-1,1.3-2.3,2.4-4.4,2.4C204.2,55,201.3,52.5,201.3,48.3z M211.7,48.3L211.7,48.3c0-2.5-1.8-4.2-3.7-4.2c-2,0-3.7,1.6-3.7,4.1v0
			c0,2.5,1.7,4.1,3.7,4.1C209.9,52.4,211.7,50.7,211.7,48.3z"/>
		<path class="st1" d="M217.3,48.3L217.3,48.3c0-3.7,2.6-6.8,6.3-6.8c4.1,0,6.2,3.2,6.2,6.9c0,0.3,0,0.5,0,0.8h-9.5
			c0.3,2.1,1.8,3.3,3.7,3.3c1.4,0,2.5-0.5,3.5-1.5l1.7,1.5C228,54,226.3,55,224,55C220.2,55,217.3,52.3,217.3,48.3z M226.9,47.3
			c-0.2-1.9-1.3-3.4-3.3-3.4c-1.8,0-3.1,1.4-3.3,3.4H226.9z"/>
		<path class="st1" d="M239.8,36.9h3v17.8h-3V36.9z"/>
		<path class="st1" d="M254.3,54.7v-1.6c-0.9,1.1-2.2,1.9-4.2,1.9c-2.4,0-4.6-1.4-4.6-4v0c0-2.9,2.2-4.2,5.2-4.2
			c1.6,0,2.6,0.2,3.6,0.5V47c0-1.8-1.1-2.8-3.2-2.8c-1.4,0-2.5,0.3-3.7,0.8l-0.8-2.4c1.4-0.6,2.8-1.1,4.9-1.1c3.8,0,5.7,2,5.7,5.5
			v7.6H254.3z M254.4,49.3c-0.8-0.3-1.8-0.5-3-0.5c-1.9,0-3,0.8-3,2v0c0,1.2,1.1,1.9,2.5,1.9c2,0,3.4-1.1,3.4-2.7V49.3z"/>
		<path class="st1" d="M267.9,37.6h2.8l9.2,11.8V37.6h3v17.1h-2.5l-9.4-12.2v12.2h-3V37.6z"/>
		<path class="st1" d="M294.5,54.7v-1.6c-0.9,1.1-2.2,1.9-4.2,1.9c-2.4,0-4.6-1.4-4.6-4v0c0-2.9,2.2-4.2,5.2-4.2
			c1.6,0,2.6,0.2,3.6,0.5V47c0-1.8-1.1-2.8-3.2-2.8c-1.4,0-2.5,0.3-3.7,0.8l-0.8-2.4c1.4-0.6,2.8-1.1,4.9-1.1c3.8,0,5.7,2,5.7,5.5
			v7.6H294.5z M294.6,49.3c-0.8-0.3-1.8-0.5-3-0.5c-1.9,0-3,0.8-3,2v0c0,1.2,1.1,1.9,2.5,1.9c2,0,3.4-1.1,3.4-2.7V49.3z"/>
		<path class="st1" d="M300,48.3L300,48.3c0-3.7,2.8-6.8,6.7-6.8c2.4,0,4,0.9,5.2,2.2l-1.8,2c-0.9-1-1.9-1.6-3.3-1.6
			c-2.2,0-3.7,1.9-3.7,4.1v0c0,2.3,1.6,4.2,3.9,4.2c1.4,0,2.4-0.7,3.3-1.6l1.8,1.8c-1.3,1.4-2.8,2.4-5.3,2.4
			C302.9,55,300,52,300,48.3z"/>
		<path class="st1" d="M314.5,37h3.2v2.8h-3.2V37z M314.6,41.8h3v12.9h-3V41.8z"/>
		<path class="st1" d="M320.5,48.3L320.5,48.3c0-3.7,2.9-6.8,6.9-6.8c4,0,6.9,3,6.9,6.7v0c0,3.7-2.9,6.7-6.9,6.7
			C323.4,55,320.5,52,320.5,48.3z M331.3,48.3L331.3,48.3c0-2.3-1.6-4.2-4-4.2c-2.4,0-3.9,1.9-3.9,4.1v0c0,2.2,1.6,4.2,3.9,4.2
			C329.8,52.4,331.3,50.5,331.3,48.3z M328.7,36.1l2.7,1.2l-3,2.8h-2.2L328.7,36.1z"/>
		<path class="st1" d="M337,41.8h3v2c0.8-1.2,2-2.3,4-2.3c2.9,0,4.6,2,4.6,5v8.2h-3v-7.3c0-2-1-3.2-2.8-3.2c-1.7,0-2.9,1.2-2.9,3.2
			v7.3h-3V41.8z"/>
	</g>
	<g>
		<g>
			<path class="st2" d="M21.5,34.1h-3.6c-0.8,0-1.2-0.3-1.4-0.6c-0.2-0.2-0.3-0.5-0.4-0.9c0,0,0-0.1,0-0.1c0-0.3,0-0.7,0.1-1.1
				c0.5-2.3,1.4-3.9,2.2-4.9c-0.1,0-0.2-0.1-0.2-0.1c-0.5-0.3-0.7-0.8-0.6-1.5c0.1-0.8,0.9-1.6,1-1.7c1.2-1.4,3-1.5,3.3-1.5
				c0.3,0,2.7-0.1,4,2.4c1.5,3,1.9,5.5,2.2,7.5l0,0.1c0.1,0.3,0,0.6,0,0.9c0,0,0,0.1,0,0.1c-0.1,0.3-0.2,0.5-0.4,0.6
				c-0.3,0.3-0.8,0.6-1.4,0.7c-0.3,0-0.5,0-0.6,0c-0.1,0-0.1,0-0.1,0h-2.8v5h15.9c0-2.9-0.4-5.8-1.3-8.5c-0.8-2.6-2-4.9-3.5-6.9
				c-1.5-2-3.3-3.6-5.2-4.6c-2-1.1-4.2-1.7-6.4-1.7c-2.2,0-4.3,0.6-6.4,1.7c-2,1.1-3.7,2.7-5.2,4.6c-1.5,2-2.7,4.3-3.5,6.9
				c-0.9,2.7-1.3,5.5-1.3,8.5h15.9V34.1z"/>
		</g>
		<g>
			<path class="st3" d="M5.6,39.1c0,2.2,0.3,4.4,0.8,6.5c7.1-0.8,11.3-1.6,12.6-2.5c0.9-0.6,1.6-1,2.5-1v-3.1H5.6z"/>
			<path class="st3" d="M22.5,42.3c0.6,0.1,1.1,0.3,1.6,0.5c0.1,0,0.1,0,0.2,0c0.9,0,1.7,0.2,2.8,0.6c0.3,0.1,0.6,0.2,1,0.3
				c0.2,0,5.3,1.7,9.6,1.9c0.5-2.1,0.8-4.3,0.8-6.6H22.5V42.3z"/>
		</g>
		<polygon class="st0" points="21,14.6 21,14.6 21,14.6 		"/>
		<polygon class="st0" points="17.7,15.1 17.7,15.1 17.7,15.1 		"/>
		<polygon class="st0" points="17.7,15.1 17.7,15.1 17.7,15.1 		"/>
		<path class="st3" d="M29,49.3c-0.1,0.1-0.2,0.3-0.3,0.4c-0.3,0.3-0.6,0.4-1.1,0.4c-0.1,0.1-0.1,0.3-0.3,0.4
			c-0.2,0.3-0.7,0.6-1.4,0.5c-0.1,0.1-0.2,0.2-0.3,0.4c-0.4,0.4-0.8,0.5-1.4,0.4c-0.1,0.1-0.3,0.2-0.5,0.3c-0.3,0.1-0.7,0.2-1.3,0.1
			v4.2c0,0.3-0.2,0.5-0.5,0.5c-0.3,0-0.5-0.2-0.5-0.5v-4c-0.2,0.1-0.4,0.1-0.7,0.1c-0.1,0-0.2,0-0.3,0c-0.3-0.1-0.6-0.2-0.8-0.5
			c-0.4,0.1-1,0.1-1.4-0.2c-0.2-0.1-0.3-0.3-0.4-0.5c-0.1,0-0.3,0-0.5-0.1c-0.5-0.1-0.8-0.4-0.9-0.8c-0.1,0-0.2,0-0.4,0
			c-0.4-0.1-0.9-0.2-1.1-0.7c0-0.1-0.1-0.2-0.1-0.3c-2.3,1.2-4.8,2.3-6,2.8c0.4,0.8,0.9,1.5,1.5,2.2c1.5,2,3.3,3.6,5.2,4.6
			c0.9,0.5,1.8,0.9,2.8,1.2c0.1-0.2,0.2-0.3,0.4-0.5c0.9-0.6,2.6-0.2,3.1,0c0.5-0.1,2.2-0.6,3.1,0c0.2,0.1,0.3,0.3,0.4,0.5
			c1-0.3,1.9-0.7,2.8-1.2c2-1.1,3.7-2.7,5.2-4.6c0.5-0.7,1-1.3,1.4-2.1C33.7,51.9,30.8,50.7,29,49.3z"/>
		<g>
			<path class="st2" d="M23.5,63.7c0-0.1,0-0.2,0-0.4c0-0.1,0-0.2,0-0.3c0.5-0.1,1.4-0.4,1.9-1c0.3-0.3,0.4-0.7,0.3-1.2
				c0-0.4-0.2-0.7-0.6-0.9c-0.9-0.6-2.6-0.2-3.1,0c-0.5-0.1-2.2-0.6-3.1,0c-0.3,0.2-0.5,0.5-0.6,0.9c-0.1,0.5,0.1,0.9,0.3,1.2
				c0.5,0.6,1.4,0.8,1.9,1c0,0.1,0,0.2,0,0.3c0,0.1,0,0.2,0,0.4c-0.4,0.4-1.6,1.5-3.5,1.7l0,0c0.1,0.1,0.2,0.4,0.5,0.6
				c1.6-0.3,2.8-1.2,3.3-1.7c0.1,0.1,0.1,0.1,0.2,0.2c-0.1,0.4-0.6,1.6-2.6,2.1c0.3,0.1,0.7,0.3,1.2,0.3c1.4-0.6,1.9-1.6,2-2.1
				c0.1,0,0.2,0,0.3,0c0.1,0,0.2,0,0.3,0c0.2,0.5,0.7,1.5,2,2.1c0.5-0.1,0.9-0.2,1.2-0.3c-2-0.5-2.4-1.6-2.6-2.1
				c0.1,0,0.1-0.1,0.2-0.2c0.5,0.5,1.7,1.4,3.3,1.7c0.3-0.3,0.5-0.5,0.5-0.6C25.1,65.1,23.9,64.1,23.5,63.7z"/>
			<g>
				<g>
					<path class="st3" d="M24.8,60.5c0.1,0.1,0.2,0.2,0.2,0.4c0,0.3,0,0.5-0.2,0.7c-0.2,0.3-0.6,0.4-0.9,0.6
						c0.2-0.4,0.2-0.7,0.1-1.1c-0.1-0.3-0.3-0.6-0.6-0.8C23.9,60.3,24.5,60.3,24.8,60.5z"/>
					<path class="st3" d="M20.7,61.3c0.3-0.7,1.3-0.7,1.3-0.7h0c0,0,0.3,0,0.6,0.1c0.4,0.1,0.6,0.3,0.7,0.6c0.1,0.3-0.1,0.7-0.3,0.9
						c-0.3-0.2-0.6-0.4-1-0.4c-0.4,0-0.7,0.1-1,0.4C20.8,62,20.6,61.6,20.7,61.3z"/>
					<path class="st3" d="M20.1,62.1c-0.4-0.1-0.7-0.3-0.9-0.6c-0.2-0.2-0.2-0.4-0.2-0.7c0-0.2,0.1-0.3,0.2-0.4
						c0.2-0.1,0.5-0.2,0.9-0.2c0.1,0,0.3,0,0.5,0c-0.2,0.2-0.4,0.4-0.6,0.8C19.9,61.5,20,61.8,20.1,62.1z"/>
					<circle class="st3" cx="22" cy="63.3" r="0.8"/>
				</g>
				<path class="st3" d="M26.4,66c-1.6-0.3-2.7-1.2-3.3-1.7c-0.1,0.1-0.1,0.1-0.2,0.2c0.1,0.5,0.6,1.6,2.6,2.1
					C25.9,66.4,26.2,66.2,26.4,66z"/>
				<path class="st3" d="M20.9,64.3c-0.5,0.5-1.7,1.4-3.3,1.7c0.2,0.2,0.5,0.4,0.9,0.6c2-0.5,2.4-1.6,2.6-2.1
					C21,64.4,21,64.4,20.9,64.3z"/>
			</g>
		</g>
		<path class="st0" d="M41.9,43.3c0-0.1,0-0.2-0.1-0.3C41.7,43,41.6,43,41.5,43c0.1-0.1,0.1-0.3,0.2-0.4c0.2-0.7,0.4-1.5,0.4-2.3
			c0-0.1-0.1-0.2-0.2-0.3c-0.1,0-0.2-0.1-0.2-0.1c0.1-0.1,0.1-0.3,0.1-0.4c0.2-0.7,0.2-1.5,0.2-2.3c0-0.1-0.1-0.2-0.2-0.3
			c-0.1,0-0.2-0.1-0.2,0c0-0.2,0.1-0.3,0.1-0.5c0.1-0.7,0.1-1.5-0.1-2.3c0-0.1-0.1-0.2-0.2-0.3c-0.1,0-0.1,0-0.2,0
			c0-0.1,0-0.2,0.1-0.4c0.1-0.7,0-1.5-0.2-2.3c0-0.1-0.1-0.2-0.2-0.2c-0.1,0-0.2,0-0.3,0l0,0c0-0.2,0-0.4,0-0.6
			c0-0.7-0.2-1.5-0.5-2.3c0-0.1-0.1-0.2-0.2-0.2c-0.1,0-0.2,0-0.3,0.1c0-0.2,0-0.3,0-0.5c-0.1-0.7-0.3-1.5-0.7-2.2
			c-0.1-0.1-0.2-0.2-0.3-0.2c-0.1,0-0.2,0-0.3,0.1c0-0.2-0.1-0.3-0.1-0.5c-0.2-0.7-0.5-1.4-1-2.1c-0.1-0.1-0.2-0.2-0.3-0.2
			c-0.1,0-0.2,0.1-0.3,0.1c-0.1-0.2-0.1-0.4-0.2-0.6c-0.3-0.7-0.7-1.3-1.3-1.9c-0.1-0.1-0.2-0.1-0.3-0.1c-0.1,0-0.2,0.1-0.2,0.1
			c-0.1-0.2-0.2-0.4-0.3-0.5c-0.4-0.6-0.9-1.2-1.6-1.7c-0.1-0.1-0.2-0.1-0.3-0.1c-0.1,0-0.2,0.1-0.2,0.2c-0.4-0.6-1.1-1-1.9-1.3
			c0.1,0,0.3,0,0.4,0c0.9,0.1,1.6-0.1,1.6-0.2c0.2-0.1,0.3-0.3,0.3-0.5c0-0.2-0.2-0.4-0.4-0.4c-1,0-1.4-0.3-1.9-0.5
			c-0.1-0.1-0.2-0.1-0.3-0.2l2.4-0.4c0.2,0,0.4-0.2,0.4-0.4c0-0.2-0.2-0.4-0.4-0.4l-2.4-0.3c0.3-0.1,0.6-0.2,0.9-0.3
			c0.9-0.3,1.4-0.7,1.5-0.8c0.2-0.1,0.2-0.4,0.1-0.5c-0.1-0.2-0.3-0.3-0.5-0.2c-1,0.3-1.4,0.3-2,0.2c-0.1,0-0.2,0-0.3,0l2.1-1.3
			C32,10.2,32.1,10,32,9.8c-0.1-0.2-0.3-0.3-0.5-0.3l-2.4,0.6c0.2-0.2,0.5-0.4,0.8-0.6c0.7-0.6,1-1.2,1-1.3c0.1-0.2,0-0.4-0.1-0.5
			c-0.2-0.1-0.4-0.1-0.6,0c-0.8,0.7-1.2,0.8-1.7,1c-0.1,0-0.2,0.1-0.3,0.1l1.4-2c0.1-0.2,0.1-0.4,0-0.6c-0.2-0.2-0.4-0.2-0.6,0
			l-2,1.5c0.1-0.3,0.3-0.6,0.5-0.9C28,6,28.1,5.3,28.1,5.3c0-0.2-0.1-0.4-0.3-0.5c-0.2-0.1-0.4,0-0.5,0.2c-0.4,0.9-0.8,1.2-1.2,1.6
			c-0.1,0.1-0.2,0.1-0.2,0.2l0.6-2.4c0.1-0.2-0.1-0.4-0.3-0.5c-0.2-0.1-0.4,0-0.5,0.2l-1.3,2.1c0-0.3,0.1-0.6,0.1-1
			c0.1-0.9-0.1-1.6-0.2-1.6c-0.1-0.2-0.3-0.3-0.5-0.3c-0.2,0-0.4,0.2-0.4,0.4c0,1-0.3,1.4-0.5,1.9c0,0.1-0.1,0.2-0.1,0.3l-0.4-2.4
			c0-0.2-0.2-0.4-0.4-0.4h0c-0.2,0-0.4,0.2-0.4,0.4l-0.3,2.4C21.2,5.6,21.1,5.3,21,5c-0.3-0.9-0.7-1.4-0.8-1.5
			c-0.1-0.2-0.4-0.2-0.5-0.1c-0.2,0.1-0.3,0.3-0.2,0.5c0.3,1,0.3,1.4,0.2,2c0,0.1,0,0.2,0,0.3l-1.3-2.1C18.3,4,18.1,3.9,17.9,4
			c-0.2,0.1-0.3,0.3-0.3,0.5l0.6,2.3c-0.2-0.2-0.4-0.5-0.6-0.7c-0.6-0.7-1.2-1-1.3-1c-0.2-0.1-0.4,0-0.5,0.1c-0.1,0.2-0.1,0.4,0,0.6
			c0.7,0.8,0.8,1.2,1,1.7c0,0.1,0.1,0.2,0.1,0.3l-2-1.5c-0.2-0.1-0.4-0.1-0.6,0c-0.2,0.2-0.2,0.4,0,0.6l1.5,1.9
			c-0.2-0.1-0.5-0.3-0.9-0.5c-0.9-0.4-1.5-0.5-1.6-0.5c-0.2,0-0.4,0.1-0.5,0.3c-0.1,0.2,0,0.4,0.2,0.5c0.9,0.4,1.2,0.8,1.6,1.2
			c0.1,0.1,0.1,0.2,0.2,0.2l-2.4-0.6c-0.2-0.1-0.4,0.1-0.5,0.3c-0.1,0.2,0,0.4,0.2,0.5l2.1,1.2c-0.3,0-0.6-0.1-1-0.1
			c-0.9-0.1-1.6,0.1-1.6,0.2c-0.2,0.1-0.3,0.3-0.3,0.5c0,0.2,0.2,0.4,0.4,0.4c1,0,1.4,0.3,1.9,0.5c0.1,0,0.2,0.1,0.3,0.1l-2.4,0.4
			c-0.2,0-0.4,0.2-0.4,0.4c0,0.2,0.2,0.4,0.4,0.4l2.4,0.4c-0.3,0.1-0.6,0.2-1,0.3c-0.9,0.3-1.4,0.8-1.5,0.8
			c-0.2,0.1-0.2,0.4-0.1,0.5c0.1,0.2,0.3,0.3,0.5,0.2c0.6-0.2,0.9-0.3,1.3-0.3c-0.5,0.5-0.9,0.8-1.1,1.1c-0.1,0.1-0.2,0.2-0.3,0.4
			c0-0.1-0.1-0.1-0.2-0.1c-0.1,0-0.2,0-0.3,0.1c-0.7,0.5-1.2,1.1-1.6,1.7c-0.1,0.2-0.2,0.4-0.3,0.5c-0.1-0.1-0.1-0.1-0.2-0.1
			c-0.1,0-0.2,0-0.3,0.1c-0.6,0.6-1,1.3-1.3,1.9c-0.1,0.2-0.1,0.4-0.2,0.5c-0.1-0.1-0.1-0.1-0.2-0.1c-0.1,0-0.2,0-0.3,0.1
			c-0.5,0.7-0.9,1.4-1.1,2.1c-0.1,0.2-0.1,0.4-0.1,0.5c-0.1-0.1-0.2-0.1-0.3-0.1c-0.1,0-0.2,0.1-0.3,0.2c-0.4,0.8-0.7,1.5-0.8,2.2
			c0,0.2,0,0.4,0,0.5c-0.1-0.1-0.2-0.1-0.3-0.1c-0.1,0-0.2,0.1-0.2,0.2c-0.3,0.8-0.5,1.6-0.5,2.3c0,0.2,0,0.3,0,0.5
			c-0.1-0.1-0.2-0.1-0.3,0c-0.1,0-0.2,0.1-0.2,0.2c-0.2,0.8-0.3,1.6-0.2,2.3c0,0.1,0,0.3,0.1,0.4c-0.1,0-0.1,0-0.1,0
			c-0.1,0-0.2,0.1-0.2,0.3c-0.2,0.8-0.2,1.6-0.1,2.3c0,0.2,0.1,0.4,0.1,0.5c0,0-0.1,0-0.1,0c-0.1,0.1-0.2,0.1-0.2,0.3
			C2,38,2,38.8,2.2,39.5c0,0.2,0.1,0.3,0.1,0.4c-0.1,0-0.2,0-0.2,0.1C2,40,1.9,40.1,1.9,40.2c0,0.9,0.1,1.6,0.3,2.3
			c0.1,0.2,0.1,0.4,0.2,0.6c0,0,0,0,0,0c-0.1,0-0.2,0-0.3,0.1C2,43.3,2,43.4,2,43.5c0.1,0.8,0.4,1.6,0.7,2.2C2.8,45.9,2.9,46,3,46.1
			c-0.1,0-0.1,0-0.2,0.1c-0.1,0.1-0.1,0.2-0.1,0.3c0.2,0.8,0.5,1.6,0.9,2.2c0.1,0.1,0.2,0.3,0.3,0.4c-0.1,0-0.2,0.1-0.2,0.1
			c-0.1,0.1-0.1,0.2,0,0.3c0.3,0.8,0.7,1.5,1.1,2.1c0.1,0.1,0.2,0.2,0.3,0.3C5,52,4.9,52,4.9,52.1c-0.1,0.1-0.1,0.2,0,0.3
			c0.4,0.8,0.8,1.4,1.4,1.9c0.1,0.1,0.2,0.2,0.3,0.3c-0.1,0-0.1,0.1-0.2,0.2c0,0.1,0,0.2,0,0.3c0.5,0.7,1,1.3,1.6,1.8
			c0.2,0.1,0.4,0.3,0.5,0.4c0,0-0.1,0-0.1,0c-0.1,0-0.2,0.1-0.2,0.2c0,0.1,0,0.2,0.1,0.3c0.6,0.6,1.2,1.1,1.8,1.5
			c0.5,0.3,1,0.5,1.5,0.6c0.4,0.1,0.9,0.1,1.2,0c0,0,0,0,0.1,0c1.1,0.7,2.2,1.4,3.3,1.9c1,0.4,2,0.7,3,0.9c0.2,0,0.4,0.1,0.6,0.1
			c-0.4-0.2-0.8-0.4-1.1-0.7c-0.1-0.1-0.1-0.1-0.1-0.2c-0.7-0.2-1.4-0.4-2-0.7c-1.1-0.5-2.2-1.1-3.2-1.8c0,0,0,0,0,0
			c0-0.3,0-0.7-0.1-1c0.7,0.6,1.4,1.1,2.1,1.5c1,0.5,2,1,3,1.3c0-0.1,0-0.1,0-0.2c0-0.2,0.1-0.3,0.1-0.5c-1-0.3-1.9-0.7-2.8-1.2
			c-2-1.1-3.7-2.7-5.2-4.6c-0.5-0.7-1-1.4-1.5-2.2c1.2-0.5,3.7-1.7,6-2.8c0,0.1,0,0.2,0.1,0.3c0.2,0.4,0.7,0.6,1.1,0.7
			c0.1,0,0.3,0,0.4,0c0.1,0.4,0.5,0.6,0.9,0.8c0.2,0.1,0.4,0.1,0.5,0.1c0.1,0.2,0.2,0.4,0.4,0.5c0.4,0.3,1.1,0.3,1.4,0.2
			c0.2,0.2,0.5,0.4,0.8,0.5c0.1,0,0.2,0,0.3,0c0.2,0,0.5-0.1,0.7-0.1v4c0,0.3,0.2,0.5,0.5,0.5c0.3,0,0.5-0.2,0.5-0.5v-4.2
			c0.5,0.1,1,0,1.3-0.1c0.2-0.1,0.4-0.2,0.5-0.3c0.5,0.1,1-0.1,1.4-0.4c0.1-0.1,0.2-0.3,0.3-0.4c0.7,0,1.1-0.3,1.4-0.5
			c0.1-0.1,0.2-0.3,0.3-0.4c0.4,0,0.8-0.2,1.1-0.4c0.1-0.1,0.2-0.3,0.3-0.4c1.8,1.4,4.7,2.7,6,3.2c-0.4,0.7-0.9,1.4-1.4,2.1
			c-1.5,2-3.3,3.6-5.2,4.6c-0.9,0.5-1.9,0.9-2.8,1.2c0.1,0.1,0.1,0.3,0.1,0.5c0,0.1,0,0.1,0,0.2c1-0.3,2-0.7,3-1.3
			c0.8-0.4,1.5-1,2.1-1.5c-0.1,0.3-0.1,0.7-0.1,1c0,0,0,0,0,0.1c-0.3,0.2-1.1,0.8-2.3,1.4c-0.9,0.4-1.9,0.8-2.8,1.1c0,0-0.1,0-0.1,0
			c0,0.1-0.1,0.1-0.1,0.2c-0.3,0.4-0.7,0.6-1.2,0.8c0.5-0.1,1.1-0.2,1.6-0.3c1-0.3,2-0.6,2.9-1.1c1.3-0.6,2.1-1.2,2.5-1.5
			c0,0,0,0,0.1,0c0.4,0.1,0.8,0.1,1.2,0c0.5-0.1,1-0.3,1.5-0.6c0.6-0.3,1.2-0.8,1.8-1.5c0.1-0.1,0.1-0.2,0.1-0.3
			c0-0.1-0.1-0.2-0.2-0.2c0,0,0,0-0.1,0c0.2-0.1,0.4-0.2,0.5-0.4c0.6-0.4,1.1-1,1.6-1.8c0.1-0.1,0.1-0.2,0-0.3
			c0-0.1-0.1-0.1-0.2-0.2c0.1-0.1,0.2-0.2,0.3-0.3c0.5-0.5,1-1.1,1.4-1.9c0.1-0.1,0-0.2,0-0.3c-0.1-0.1-0.1-0.2-0.2-0.2
			c0.1-0.1,0.2-0.2,0.3-0.4c0.5-0.6,0.8-1.2,1.1-2.1c0-0.1,0-0.2,0-0.3c-0.1-0.1-0.2-0.1-0.3-0.2l0,0c0.1-0.1,0.2-0.3,0.3-0.4
			c0.4-0.6,0.7-1.3,0.9-2.2c0-0.1,0-0.2-0.1-0.3c-0.1-0.1-0.2-0.1-0.3-0.1c0.1-0.1,0.2-0.3,0.3-0.5C41.6,45,41.8,44.2,41.9,43.3z
			 M41.5,40.7C41.5,40.7,41.5,40.7,41.5,40.7c0,0.6-0.1,1.1-0.3,1.6c-0.2,0.5-0.4,0.9-0.7,1.2c-0.3,0.4-0.7,0.6-0.8,0.7c0,0,0,0,0,0
			c0,0,0,0,0,0c-0.5-0.6-0.7-1.4-0.7-2.3c0-0.3,0-0.6,0.1-0.9c0,0,0,0,0,0c0,0,0,0,0,0c0.4,0.5,0.7,1.2,0.7,1.2
			c0,0.1,0.1,0.2,0.2,0.2c0.1,0,0.2-0.1,0.2-0.1C40.5,41.4,41.1,41,41.5,40.7C41.5,40.7,41.5,40.7,41.5,40.7z M41.4,37.6
			C41.4,37.6,41.4,37.6,41.4,37.6C41.4,37.6,41.4,37.6,41.4,37.6c0,0.6,0,1.1-0.1,1.6c-0.1,0.5-0.3,0.9-0.6,1.3
			c-0.3,0.4-0.6,0.7-0.8,0.8c0,0,0,0,0,0s0,0,0,0C39.1,40.4,39,39,39,38.3c0,0,0,0,0,0c0,0,0,0,0,0c0.4,0.5,0.7,1.1,0.7,1.1
			c0,0.1,0.1,0.1,0.2,0.1c0.1,0,0.2-0.1,0.2-0.2C40.6,38.5,41.1,37.9,41.4,37.6z M41.1,34.5C41.1,34.5,41.1,34.5,41.1,34.5
			C41.1,34.5,41.1,34.5,41.1,34.5c0.1,0.6,0.1,1.1,0,1.6c-0.1,0.5-0.2,1-0.5,1.4c-0.3,0.5-0.6,0.8-0.7,0.9c0,0,0,0,0,0s0,0,0,0
			c-0.8-0.7-1.1-2.2-1.1-3c0,0,0,0,0,0c0,0,0,0,0,0c0.5,0.4,0.8,1,0.8,1c0.1,0.1,0.2,0.1,0.3,0.1c0.1,0,0.2-0.1,0.2-0.2
			C40.3,35.4,40.8,34.9,41.1,34.5z M40.6,31.6C40.6,31.6,40.6,31.6,40.6,31.6C40.6,31.6,40.6,31.6,40.6,31.6
			c0.1,0.6,0.2,1.1,0.1,1.6c-0.1,0.5-0.2,1-0.4,1.4c-0.2,0.5-0.5,0.8-0.7,0.9c0,0,0,0,0,0c0,0,0,0,0,0c-0.7-0.6-1-1.4-1.2-2.1
			c-0.1-0.3-0.1-0.6-0.1-0.9c0,0,0,0,0,0c0,0,0,0,0,0c0.5,0.4,0.9,1,0.9,1c0.1,0.1,0.2,0.1,0.3,0.1c0.1,0,0.2-0.1,0.2-0.2
			C39.9,32.5,40.3,31.9,40.6,31.6z M17,31.8c0,0,0-0.1,0-0.1c0.4-2,1.2-3.4,1.8-4.2c0.4-0.6,0.9-1,1.1-1.1c0.1,0,0.1-0.1,0.2-0.2
			c0.2-0.2,0.2-0.5,0.1-0.7c-0.2-0.2-0.4-0.2-0.7-0.1c0,0-0.1,0.1-0.2,0.2c-0.5,0.3-0.7,0.2-0.8,0.2c-0.1-0.1-0.2-0.3-0.2-0.5
			c0.1-0.4,0.6-1,0.8-1.2c0,0,0,0,0,0c1-1.2,2.6-1.2,2.6-1.2c0,0,0,0,0,0c0,0,0.5,0,1.1,0.2c0.8,0.3,1.5,0.9,2,1.7
			c0.6,1.2,1.1,2.4,1.5,3.8c-0.9-0.3-1.6-0.9-1.6-0.9c-0.2-0.2-0.5-0.1-0.7,0.1c-0.1,0.1-0.1,0.2-0.1,0.4c0,0.1,0.1,0.2,0.2,0.3
			c0,0,1.1,0.9,2.5,1.2c0.1,0.4,0.2,0.9,0.3,1.5c-0.4-0.2-0.9-0.3-1.3-0.5c-0.3-0.1-0.5-0.1-0.7-0.2c-0.9-0.4-1.7-1-1.7-1
			c-0.2-0.2-0.5-0.1-0.7,0.1c-0.2,0.2-0.1,0.5,0.1,0.7c0,0,0.9,0.7,1.9,1.1c0.3,0.1,0.6,0.2,0.9,0.3c1.1,0.3,1.7,0.5,1.7,1.1
			c0,0.1-0.1,0.2-0.1,0.2c-0.4,0.4-1.2,0.4-1.5,0.4c0,0,0,0,0,0h-1.1c-0.2,0-1.3,0-2.3-0.7C19.5,30.9,18.4,31.2,17,31.8z M21.2,33.2
			h-3.3c-0.3,0-0.6-0.1-0.7-0.3c0,0-0.1-0.1-0.1-0.1C18.5,32.2,19.2,31.9,21.2,33.2z M22.5,39.1v-5h2.8c0,0,0.1,0,0.1,0
			c0.1,0,0.4,0,0.6,0c0.6-0.1,1.1-0.3,1.4-0.7c0.1-0.1,0.3-0.4,0.4-0.6c0,0,0-0.1,0-0.1c0.1-0.2,0.1-0.5,0-0.9l0-0.1
			c-0.3-2-0.7-4.5-2.2-7.5c-1.3-2.5-3.7-2.4-4-2.4c-0.2,0-2,0.1-3.3,1.5c-0.1,0.1-0.9,0.9-1,1.7c-0.1,0.6,0.1,1.2,0.6,1.5
			c0.1,0,0.2,0.1,0.2,0.1c-0.8,1-1.7,2.5-2.2,4.9c-0.1,0.4-0.1,0.8-0.1,1.1c0,0,0,0.1,0,0.1c0.1,0.3,0.2,0.6,0.4,0.9
			c0.2,0.3,0.6,0.6,1.4,0.6h3.6v5v3.1c-0.9,0-1.6,0.3-2.5,1c-1.3,0.8-5.5,1.7-12.6,2.5c-0.5-2.1-0.8-4.3-0.8-6.5
			c0-2.9,0.4-5.8,1.3-8.5c0.8-2.6,2-4.9,3.5-6.9c1.5-2,3.3-3.6,5.2-4.6c2-1.1,4.2-1.7,6.4-1.7c2.2,0,4.3,0.6,6.4,1.7
			c2,1.1,3.7,2.7,5.2,4.6c1.5,2,2.7,4.3,3.5,6.9c0.9,2.7,1.3,5.5,1.3,8.5c0,2.3-0.3,4.5-0.8,6.6c-4.3-0.2-9.4-1.9-9.6-1.9
			c-0.4-0.1-0.7-0.2-1-0.3c-1.1-0.4-1.8-0.7-2.8-0.6c-0.1,0-0.1,0-0.2,0c-0.5-0.3-1-0.4-1.6-0.5V39.1z M29.3,16.4
			c-0.3,0.1-0.7,0.2-1.1,0.3c-0.3,0.1-0.6,0.1-0.8,0.1c-0.6,0-1.2-0.2-1.6-0.5c0,0,0,0,0,0c0,0,0,0,0,0c0.2-0.1,0.5-0.3,0.9-0.4
			c0.4-0.1,0.9-0.1,1.3,0C28.4,16,28.8,16.1,29.3,16.4C29.3,16.4,29.3,16.4,29.3,16.4C29.3,16.4,29.3,16.4,29.3,16.4z M29.9,18.1
			C29.9,18.1,29.9,18.1,29.9,18.1C29.9,18.2,29.9,18.2,29.9,18.1c-0.2,0.1-0.5,0.2-0.8,0.2c0,0-0.1,0-0.1,0c-0.7,0-1.5-0.3-2.1-0.8
			c0,0,0,0,0,0c0,0,0,0,0,0c0.3-0.1,0.6-0.2,0.9-0.2C28.6,17.3,29.3,17.5,29.9,18.1z M26.5,15.4c-0.3,0.1-0.8,0.3-1.5,0.4
			c-0.1,0-0.2,0.1-0.2,0.2c0,0.1,0,0.2,0.1,0.3c0,0,0.6,0.4,1,0.9c0,0,0,0,0,0c0,0,0,0,0,0h0c-0.7,0-2-0.2-3-1.4c0,0,0,0,0,0
			c0.1-0.1,0.4-0.3,0.8-0.5C24.4,15.1,25.4,15.1,26.5,15.4C26.5,15.4,26.5,15.4,26.5,15.4C26.5,15.4,26.5,15.4,26.5,15.4z
			 M23.3,14.9c-0.3,0.2-0.7,0.5-1.4,0.7c-0.1,0-0.2,0.1-0.2,0.2c0,0.1,0.1,0.2,0.2,0.2c0,0,0.6,0.2,1.1,0.7c0,0,0,0,0,0c0,0,0,0,0,0
			c-0.2,0-0.4,0-0.6,0c-0.8,0-1.8-0.1-2.5-0.7c0,0,0,0,0,0c0.1-0.2,0.3-0.4,0.7-0.6C21.2,15,22.2,14.8,23.3,14.9
			C23.3,14.9,23.3,14.9,23.3,14.9C23.3,14.9,23.3,14.9,23.3,14.9z M20,14.9c-0.2,0.3-0.6,0.6-1.3,1c-0.1,0-0.2,0.2-0.1,0.3
			c0,0.1,0.1,0.2,0.2,0.2c0,0,0.7,0.1,1.3,0.4c0,0,0,0,0,0c0,0,0,0,0,0c-0.3,0.1-0.6,0.2-0.8,0.2c-0.3,0-0.6,0.1-0.9,0.1
			c-0.5,0-1-0.1-1.5-0.3c0,0,0,0,0,0c0.1-0.2,0.2-0.5,0.5-0.8C17.9,15.5,18.9,15.1,20,14.9C20,14.9,20,14.9,20,14.9
			C20.1,14.9,20.1,14.9,20,14.9z M15.8,16.9c-0.1,0.1-0.1,0.2-0.1,0.3c0,0.1,0.1,0.2,0.2,0.2h0c0,0,0.3,0,0.6,0
			c0.2,0,0.5,0.1,0.7,0.1c0,0,0,0,0,0c0,0,0,0,0,0c-0.3,0.1-0.5,0.2-0.8,0.3c-0.6,0.2-1.1,0.3-1.5,0.3c-0.4,0-0.7-0.1-0.9-0.1
			c0,0,0,0,0,0c0.1-0.5,0.6-1.9,2.9-2.6c0,0,0,0,0,0c0,0,0,0,0,0C16.8,15.8,16.5,16.4,15.8,16.9z M39,30.5c0.1-0.9,0.4-1.6,0.6-1.9
			c0,0,0,0,0,0c0,0,0,0,0,0c0.2,0.6,0.3,1.1,0.3,1.6c0,0.5,0,1-0.2,1.4c-0.2,0.5-0.4,0.8-0.5,1c0,0,0,0,0,0c0,0,0,0,0,0
			c-0.6-0.4-1.1-1-1.5-1.9c-0.1-0.3-0.2-0.5-0.3-0.8c0,0,0,0,0,0c0,0,0,0,0,0c0.6,0.3,1,0.8,1,0.8c0.1,0.1,0.2,0.1,0.3,0.1
			C39,30.7,39,30.6,39,30.5z M38,27.7c0-0.9,0.2-1.6,0.4-2c0,0,0,0,0,0c0,0,0,0,0,0c0.2,0.5,0.4,1.1,0.5,1.6c0.1,0.5,0.1,1,0,1.4
			c-0.1,0.5-0.3,0.9-0.4,1c0,0,0,0,0,0c0,0,0,0,0,0c-0.7-0.3-1.2-0.9-1.7-1.7c-0.1-0.3-0.2-0.5-0.3-0.8c0,0,0,0,0,0c0,0,0,0,0,0
			c0.6,0.3,1.1,0.7,1.1,0.7c0.1,0.1,0.2,0.1,0.3,0h0C38,27.9,38,27.8,38,27.7z M36.6,25.3L36.6,25.3c0.1-0.1,0.1-0.2,0.1-0.3
			c-0.1-0.9,0-1.6,0.2-2c0,0,0,0,0,0c0,0,0,0,0,0c0.3,0.5,0.5,1,0.6,1.5c0.1,0.5,0.2,1,0.1,1.4c-0.1,0.5-0.2,0.9-0.3,1.1
			c0,0,0,0,0,0s0,0,0,0c-0.8-0.3-1.4-0.8-1.9-1.6c-0.2-0.2-0.3-0.5-0.4-0.8c0,0,0,0,0,0c0,0,0,0,0,0c0.7,0.2,1.2,0.6,1.2,0.6
			C36.4,25.4,36.5,25.4,36.6,25.3z M34.7,22.9c0.1,0.1,0.2,0.1,0.3,0c0.1-0.1,0.1-0.2,0.1-0.3c-0.2-0.8-0.2-1.5-0.1-2c0,0,0,0,0,0
			c0,0,0,0,0,0c0.4,0.4,0.7,0.9,0.9,1.4c0.2,0.5,0.3,0.9,0.4,1.4c0,0.5-0.1,0.9-0.1,1.1c0,0,0,0,0,0l0,0c-0.7-0.1-1.4-0.6-2.1-1.2
			c-0.2-0.2-0.4-0.5-0.6-0.7c0,0,0,0,0,0c0,0,0,0,0,0C34.1,22.5,34.7,22.9,34.7,22.9z M32.8,20.7c0.1,0,0.2,0,0.3-0.1
			c0.1-0.1,0.1-0.2,0-0.3c-0.4-0.8-0.5-1.5-0.5-2c0,0,0,0,0,0c0,0,0,0,0,0c0.4,0.4,0.8,0.8,1.1,1.2c0.3,0.4,0.5,0.9,0.6,1.3
			c0.1,0.5,0.1,1,0.1,1.1c0,0,0,0,0,0c0,0,0,0-0.1,0c-0.8,0-1.6-0.5-2.1-0.9c-0.3-0.2-0.5-0.4-0.7-0.7c0,0,0,0,0,0c0,0,0,0,0,0
			c0,0,0.1,0,0.1,0C32.2,20.5,32.8,20.7,32.8,20.7z M32,18.7c0.2,0.5,0.2,1,0.2,1.2c0,0,0,0,0,0c0,0-0.1,0-0.1,0
			c-1,0-2.3-0.7-2.9-1.1c0,0,0,0,0,0c0,0,0,0,0,0c0.7-0.1,1.3,0,1.3,0c0.1,0,0.2,0,0.3-0.1c0.1-0.1,0.1-0.2,0-0.3
			c-0.4-0.5-0.7-1.1-0.8-1.5c0,0,0,0,0,0c0,0,0,0,0,0C31,17.3,31.7,17.9,32,18.7z M13.1,15.7c0,0,0.1,0,0.2-0.1
			c0.6-0.2,1.2-0.4,1.5-0.4c0.7-0.2,1.2-0.5,1.2-0.5c0.1,0,0.1-0.1,0.1-0.2c0-0.1-0.1-0.1-0.1-0.1l-3-0.4l3-0.4
			c0.1,0,0.1-0.1,0.1-0.2c0-0.1-0.1-0.2-0.1-0.2c0,0-0.7-0.1-1.3-0.4c-0.2-0.1-0.4-0.2-0.5-0.3c-0.3-0.1-0.5-0.3-0.9-0.4
			c0.1,0,0.1,0,0.2,0c0.7,0,1.2,0.1,1.5,0.2c0.7,0.1,1.2,0,1.3,0c0.1,0,0.1-0.1,0.1-0.1c0-0.1,0-0.1-0.1-0.2l-2.6-1.6l3,0.7
			c0.1,0,0.2,0,0.2-0.1c0-0.1,0-0.2-0.1-0.2c0,0-0.6-0.3-1.1-0.9c-0.1-0.2-0.3-0.3-0.4-0.5c-0.2-0.2-0.4-0.5-0.6-0.7
			c0,0,0.1,0,0.1,0.1c0.6,0.3,1.1,0.6,1.4,0.8c0.6,0.4,1.1,0.5,1.2,0.5c0.1,0,0.1,0,0.2-0.1c0-0.1,0-0.1,0-0.2l-1.8-2.4L18,9.3
			c0.1,0.1,0.2,0,0.2,0c0.1-0.1,0.1-0.2,0-0.2c0-0.1-0.4-0.6-0.7-1.2c-0.1-0.2-0.1-0.4-0.2-0.6C17.3,7,17.2,6.7,17,6.4
			c0,0,0.1,0.1,0.1,0.1c0.4,0.5,0.8,1,1,1.2c0.4,0.6,0.8,0.9,0.9,0.9c0.1,0,0.1,0,0.2,0c0.1,0,0.1-0.1,0.1-0.2l-0.8-2.9l1.6,2.6
			c0,0.1,0.1,0.1,0.2,0.1c0.1,0,0.1-0.1,0.1-0.2c0,0-0.2-0.7-0.1-1.4c0-0.2,0-0.4,0-0.6c0-0.3,0.1-0.6,0-0.9c0,0,0,0.1,0.1,0.2
			c0.2,0.6,0.4,1.2,0.4,1.5c0.1,0.7,0.4,1.1,0.5,1.2c0,0.1,0.1,0.1,0.2,0.1c0.1,0,0.1-0.1,0.1-0.1l0.4-3l0.4,3
			c0,0.1,0.1,0.1,0.2,0.1c0.1,0,0.2-0.1,0.2-0.1c0,0,0.1-0.7,0.4-1.3c0.1-0.2,0.2-0.4,0.3-0.5c0.1-0.3,0.3-0.5,0.4-0.9
			c0,0.1,0,0.1,0,0.2c0,0.6-0.1,1.2-0.2,1.5c-0.1,0.7,0,1.2,0,1.3c0,0.1,0.1,0.1,0.1,0.1c0.1,0,0.1,0,0.2-0.1l1.6-2.6l-0.7,2.9
			c0,0.1,0,0.2,0.1,0.2c0.1,0,0.2,0,0.2-0.1c0-0.1,0.4-0.6,0.9-1.1c0.2-0.1,0.3-0.3,0.5-0.4c0.2-0.2,0.5-0.4,0.7-0.6
			c0,0,0,0.1-0.1,0.1c-0.3,0.6-0.6,1.1-0.8,1.4c-0.4,0.6-0.5,1.1-0.5,1.2c0,0.1,0,0.1,0.1,0.2c0.1,0,0.1,0,0.2,0l2.4-1.8l-1.8,2.4
			c-0.1,0.1,0,0.2,0,0.2c0.1,0.1,0.2,0.1,0.2,0c0,0,0.5-0.4,1.2-0.7c0.2-0.1,0.4-0.1,0.6-0.2C29,9.2,29.3,9.1,29.6,9
			c0,0-0.1,0.1-0.1,0.1c-0.5,0.4-1,0.8-1.2,1c-0.6,0.4-0.9,0.9-0.9,0.9c0,0.1,0,0.1,0,0.2c0,0.1,0.1,0.1,0.2,0.1l2.9-0.7L27.9,12
			c-0.1,0-0.1,0.1-0.1,0.2c0,0.1,0.1,0.1,0.2,0.1c0.1,0,0.7-0.2,1.4-0.1c0.2,0,0.4,0,0.6,0c0.3,0,0.6,0.1,0.9,0c0,0-0.1,0-0.2,0.1
			c-0.6,0.2-1.2,0.4-1.5,0.4c-0.7,0.2-1.2,0.4-1.2,0.5c-0.1,0-0.1,0.1-0.1,0.2c0,0.1,0.1,0.1,0.1,0.1l3,0.4l-3,0.4
			c-0.1,0-0.1,0.1-0.1,0.2c0,0.1,0.1,0.2,0.1,0.2c0.1,0,0.7,0.1,1.3,0.4c0.2,0.1,0.4,0.2,0.5,0.3c0.3,0.1,0.5,0.3,0.9,0.4
			c-0.1,0-0.1,0-0.2,0c-0.7,0-1.2-0.1-1.5-0.2l-0.1,0c-0.5-0.2-1.1-0.4-1.7-0.4c0,0,0,0,0,0c0-0.1-0.1-0.2-0.2-0.2
			c-0.8-0.3-1.6-0.4-2.3-0.4c-0.3,0-0.5,0-0.7,0.1c0,0,0-0.1,0-0.1c-0.1-0.1-0.1-0.2-0.3-0.2c-0.9-0.1-1.6-0.1-2.3,0
			c-0.3,0.1-0.5,0.1-0.8,0.2c0-0.1,0-0.1-0.1-0.2c-0.1-0.1-0.2-0.1-0.3-0.1c-0.9,0.1-1.6,0.2-2.3,0.5c-0.2,0.1-0.3,0.2-0.5,0.2
			c0-0.1-0.1-0.2-0.1-0.2c-0.1-0.1-0.2-0.1-0.3-0.1c-0.8,0.2-1.6,0.6-2.2,1l0,0c-0.2,0-0.3,0-0.5,0c-0.1,0-0.5,0-0.6,0
			C13.7,15.7,13.5,15.6,13.1,15.7z M13.9,16.5C13.9,16.5,13.9,16.5,13.9,16.5C13.9,16.5,13.9,16.5,13.9,16.5c0,0.5-0.1,1.2-0.6,1.9
			c-0.1,0.1-0.1,0.2,0,0.3c0.1,0.1,0.2,0.1,0.3,0.1c0,0,0.7-0.1,1.3-0.1c0,0,0,0,0,0c0,0,0,0,0,0C14.3,19.3,13.2,20,12,20
			c0,0-0.1,0-0.1,0c0,0,0,0,0,0C11.8,19.4,12,17.9,13.9,16.5z M9.8,20.9c0.1-0.4,0.3-0.9,0.6-1.3c0.3-0.4,0.6-0.8,1.1-1.2
			c0,0,0,0,0,0c0,0,0,0,0,0c0,0.5-0.1,1.2-0.5,2c0,0.1,0,0.2,0,0.3c0.1,0.1,0.2,0.1,0.3,0.1c0,0,0.6-0.2,1.3-0.2c0,0,0,0,0,0
			c0,0,0,0,0,0c-0.2,0.2-0.5,0.5-0.8,0.7c-0.5,0.4-1.3,0.9-2,0.9c0,0-0.1,0-0.1,0c0,0,0,0,0,0C9.7,21.9,9.7,21.4,9.8,20.9z
			 M9.1,20.6C9.1,20.6,9.1,20.6,9.1,20.6C9.1,20.6,9.1,20.6,9.1,20.6c0.1,0.5,0.2,1.2-0.1,2c0,0.1,0,0.2,0.1,0.3
			c0.1,0.1,0.2,0.1,0.3,0c0,0,0.6-0.4,1.3-0.4c0,0,0,0,0,0c0,0,0,0,0,0c-0.5,0.6-1.4,1.8-2.6,2l0,0c0,0,0,0,0,0
			C7.8,23.9,7.6,22.4,9.1,20.6z M6.5,24.5c0.1-0.5,0.4-1,0.7-1.5c0,0,0,0,0,0c0,0,0,0,0,0c0.1,0.4,0.3,1.2,0.1,2
			c0,0.1,0,0.2,0.1,0.3c0.1,0.1,0.2,0,0.3,0c0,0,0.5-0.5,1.2-0.6c0,0,0,0,0,0c0,0,0,0,0,0c-0.1,0.2-0.3,0.5-0.5,0.8
			c-0.5,0.7-1.2,1.2-1.9,1.5c0,0,0,0,0,0s0,0,0,0c-0.1-0.1-0.2-0.5-0.3-1.1C6.2,25.5,6.3,25,6.5,24.5z M5,27.3
			c0.1-0.5,0.2-1,0.5-1.6c0,0,0,0,0,0h0c0,0,0,0,0,0c0.2,0.4,0.4,1.1,0.4,2c0,0.1,0.1,0.2,0.1,0.2c0.1,0,0.2,0,0.3,0
			c0,0,0.6-0.5,1.2-0.8c0,0,0,0,0,0c0,0,0,0,0,0c-0.1,0.3-0.2,0.5-0.3,0.7c-0.4,0.8-1,1.4-1.8,1.8c0,0,0,0,0,0c0,0,0,0,0,0
			c-0.1-0.2-0.3-0.5-0.4-1C5,28.3,4.9,27.8,5,27.3z M4.2,28.6C4.2,28.6,4.3,28.6,4.2,28.6C4.3,28.6,4.3,28.6,4.2,28.6
			c0.3,0.4,0.6,1,0.7,1.9c0,0.1,0.1,0.2,0.2,0.2c0.1,0,0.2,0,0.3-0.1c0,0,0.5-0.5,1.1-0.9c0,0,0,0,0,0c0,0,0,0,0,0
			c0,0.3-0.1,0.5-0.2,0.8c-0.3,0.8-0.8,1.5-1.6,2c0,0,0,0,0,0c0,0,0,0,0,0c-0.1-0.1-0.4-0.5-0.5-1C4,31.2,4,30.7,4,30.2
			C4,29.7,4.1,29.1,4.2,28.6z M3.4,31.5C3.4,31.5,3.4,31.5,3.4,31.5C3.4,31.5,3.4,31.5,3.4,31.5c0.3,0.3,0.7,1,0.9,1.8
			c0,0.1,0.1,0.2,0.2,0.2c0.1,0,0.2,0,0.3-0.1c0,0,0.4-0.6,0.9-1c0,0,0,0,0,0c0,0,0,0,0,0c0,0.3,0,0.5-0.1,0.8
			c-0.2,0.9-0.6,1.6-1.3,2.2c0,0,0,0,0,0c0,0,0,0,0,0c-0.1-0.1-0.4-0.4-0.6-0.9c-0.2-0.4-0.3-0.9-0.4-1.4
			C3.2,32.7,3.3,32.1,3.4,31.5z M2.9,34.5C2.9,34.5,2.9,34.5,2.9,34.5C2.9,34.5,2.9,34.5,2.9,34.5c0.4,0.3,0.8,0.9,1,1.8
			c0,0.1,0.1,0.2,0.2,0.2c0.1,0,0.2,0,0.3-0.1c0,0,0.3-0.6,0.8-1c0,0,0,0,0,0c0,0,0,0,0,0c0,0.3,0,0.6-0.1,0.9
			c-0.2,0.9-0.5,1.6-1.1,2.1c0,0,0,0,0,0s0,0,0,0c-0.1-0.1-0.4-0.4-0.7-0.9c-0.2-0.4-0.4-0.9-0.5-1.4C2.8,35.7,2.8,35.1,2.9,34.5z
			 M2.7,37.7C2.7,37.7,2.7,37.7,2.7,37.7C2.7,37.7,2.7,37.7,2.7,37.7c0.1,0,0.2,0.1,0.2,0.2c0.3,0.3,0.7,0.8,0.9,1.5
			c0,0.1,0.1,0.2,0.3,0.2c0.1,0,0.2-0.1,0.2-0.2v0c0,0,0.1-0.6,0.6-1.1c0,0,0,0,0,0c0,0,0,0,0,0c0.1,0.4,0.1,0.9,0,1.5
			c-0.1,0.7-0.4,1.3-0.9,1.7c0,0,0,0,0,0c0,0,0,0,0,0C3.6,41.1,2.5,40.1,2.7,37.7z M2.5,40.7C2.6,40.7,2.6,40.7,2.5,40.7
			c0.1,0.1,0.2,0.1,0.2,0.2c0.3,0.3,0.7,0.7,1.1,1.4c0,0.1,0.1,0.2,0.2,0.2l0,0h0c0.1,0,0.2-0.1,0.2-0.2c0,0,0.3-0.7,0.7-1.2
			c0,0,0,0,0,0c0,0,0,0,0,0c0.1,0.6,0.2,1.9-0.7,3.2c0,0,0,0,0,0s0,0,0,0C3.8,44,2.6,43.1,2.5,40.7C2.5,40.7,2.5,40.7,2.5,40.7z
			 M2.7,43.9C2.7,43.9,2.7,43.9,2.7,43.9C2.7,43.9,2.7,43.9,2.7,43.9c0.4,0.2,1,0.6,1.6,1.4c0.1,0.1,0.2,0.1,0.3,0.1
			c0.1,0,0.2-0.1,0.2-0.2v0l0,0l0,0c0,0,0.2-0.7,0.5-1.3c0,0,0,0,0,0c0,0,0,0,0,0c0.1,0.3,0.2,0.5,0.3,0.8c0.2,0.9,0,1.7-0.4,2.5
			c0,0,0,0,0,0c0,0,0,0,0,0c-0.1-0.1-0.5-0.2-1-0.6c-0.3-0.3-0.6-0.7-0.9-1.1C3,45,2.8,44.5,2.7,43.9z M3.4,46.8
			C3.4,46.8,3.4,46.8,3.4,46.8C3.4,46.8,3.4,46.8,3.4,46.8c0.1,0,0.2,0.1,0.3,0.1c0.4,0.2,0.9,0.5,1.4,1.1c0.1,0.1,0.2,0.1,0.3,0.1
			c0.1,0,0.2-0.1,0.2-0.2c0,0,0.1-0.7,0.4-1.3c0,0,0,0,0,0h0c0,0,0,0,0,0c0.3,0.7,0.7,1.9,0.1,3.3c0,0,0,0,0,0c0,0,0,0,0,0
			C5.5,49.7,4.1,49.1,3.4,46.8z M5.2,51.2c-0.3-0.4-0.6-0.9-0.8-1.4c0,0,0,0,0,0c0,0,0,0,0,0c0.1,0,0.2,0.1,0.3,0.1
			c0.4,0.1,1,0.4,1.5,1c0.1,0.1,0.2,0.1,0.3,0.1c0.1,0,0.2-0.1,0.2-0.2c0,0,0-0.7,0.2-1.3c0,0,0,0,0,0c0,0,0,0,0,0
			c0.1,0.3,0.3,0.5,0.4,0.8c0.3,0.9,0.4,1.7,0.1,2.4c0,0,0,0,0,0l0,0c-0.2,0-0.6-0.1-1-0.4C5.9,51.9,5.5,51.6,5.2,51.2z M5.6,52.6
			C5.6,52.6,5.6,52.6,5.6,52.6C5.6,52.6,5.6,52.6,5.6,52.6c0.5,0.1,1.2,0.3,1.9,0.8c0.1,0.1,0.2,0.1,0.3,0c0.1-0.1,0.1-0.1,0.1-0.3
			c0,0-0.1-0.7,0.1-1.3c0,0,0,0,0,0c0,0,0,0,0,0c0.2,0.2,0.3,0.5,0.4,0.8c0.3,0.6,0.6,1.4,0.4,2.3c0,0,0,0,0,0h0
			c-0.2,0-0.6-0.1-1.1-0.3c-0.4-0.2-0.8-0.5-1.2-0.8C6.3,53.5,5.9,53.1,5.6,52.6z M11.5,57.7c0,0-0.3-0.6-0.3-1.3c0,0,0,0,0,0
			c0,0,0,0,0,0c0.6,0.5,1.6,1.5,1.5,2.9c0,0,0,0,0,0c-0.1,0-0.2,0-0.4,0c-0.2,0-0.4,0-0.6-0.1c-0.9-0.2-1.7-0.7-2.6-1.5c0,0,0,0,0,0
			c0,0,0,0,0,0c0.5-0.1,1.2-0.1,2,0.3c0.1,0,0.2,0,0.3-0.1C11.5,57.9,11.5,57.8,11.5,57.7z M9.2,55.8c0.1,0.1,0.2,0.1,0.3,0
			c0.1-0.1,0.1-0.2,0.1-0.3c0,0-0.2-0.6-0.1-1.3c0,0,0,0,0,0c0,0,0,0,0,0c0.5,0.6,1.3,1.7,1.2,3c0,0,0,0,0,0c0,0-0.1,0-0.1,0
			c-0.2,0-0.6,0-1-0.2c-0.4-0.1-0.9-0.4-1.3-0.7c-0.4-0.3-0.8-0.7-1.1-1.2c0,0,0,0,0,0c0,0,0,0,0,0C7.7,55.2,8.4,55.4,9.2,55.8z
			 M19.1,49.2c-0.1,0.1-0.2,0.1-0.2,0.2c-0.5,0.4-0.9,0.8-1,1.2c-0.1,0-0.1,0-0.2-0.1c-0.4-0.1-0.4-0.3-0.4-0.4
			c0-0.2,0.1-0.4,0.4-0.7c0.4-0.4,0.7-0.5,0.9-0.5c0.1,0,0.2,0,0.3,0.1C19,49,19.1,49,19.1,49.2C19.1,49.1,19.1,49.2,19.1,49.2z
			 M19.6,51.3c-0.2,0-0.6,0.1-0.8-0.1c-0.1,0-0.1-0.1-0.1-0.2c0-0.4,0.4-0.7,0.7-0.9c0.4-0.3,0.7-0.5,1-0.5c0.1,0,0.2,0,0.3,0.1
			c0.1,0.1,0.1,0.1,0.1,0.2c0,0.1-0.1,0.3-0.3,0.4C20.1,50.6,19.8,50.9,19.6,51.3z M21.8,51.3c-0.2,0.1-0.7,0.5-1.1,0.4
			c-0.1,0-0.2,0-0.3-0.1c0.2-0.4,0.6-0.6,1-0.8c0.5-0.3,0.7-0.1,0.7-0.1c0.1,0.1,0.1,0.2,0.1,0.2C22.2,51,21.9,51.3,21.8,51.3
			C21.8,51.3,21.8,51.3,21.8,51.3z M17.3,48.6c-0.1,0.1-0.1,0.1-0.2,0.2c-0.2,0.2-0.5,0.5-0.6,0.9c-0.1,0-0.1,0-0.2,0
			c-0.3,0-0.4-0.1-0.5-0.2c0,0-0.1-0.2,0.1-0.4c0.2-0.3,0.7-0.5,1.1-0.5c0,0,0.1,0,0.1,0c0,0,0,0,0,0C17.1,48.5,17.2,48.6,17.3,48.6
			z M28.2,49.1c-0.1,0.1-0.3,0.2-0.6,0.2c-0.4-0.5-1.3-1.6-2.4-2.2c-0.1,0-0.2-0.1-0.3,0c-0.1,0-0.2,0.1-0.2,0.2
			c0,0.1-0.1,0.2,0,0.3c0,0.1,0.1,0.2,0.2,0.2c1,0.5,1.8,1.5,2.1,1.9c0,0.1-0.1,0.1-0.1,0.2c-0.2,0.2-0.4,0.3-0.7,0.3
			c-0.1-0.2-0.3-0.5-0.6-0.8c-0.4-0.4-1.1-0.9-1.1-1c-0.1-0.1-0.2-0.1-0.3-0.1c-0.1,0-0.2,0.1-0.3,0.2c-0.1,0.1-0.1,0.2-0.1,0.3
			c0,0.1,0.1,0.2,0.2,0.3c0.2,0.1,0.7,0.5,1,0.8c0.3,0.3,0.4,0.5,0.4,0.6c0,0.1-0.1,0.2-0.2,0.3C25,51,24.8,51.1,24.6,51
			c-0.1-0.2-0.3-0.7-0.8-1.2c-0.2-0.2-0.4-0.2-0.6,0c-0.1,0.1-0.1,0.2-0.1,0.3c0,0.1,0,0.2,0.1,0.3c0.3,0.3,0.5,0.6,0.6,0.8
			c-0.1,0-0.1,0.1-0.2,0.1c-0.2,0.1-0.4,0.1-0.7,0.1c0.1-0.2,0.2-0.3,0.2-0.5c0-0.2,0-0.6-0.4-0.9c-0.2-0.2-0.5-0.4-1-0.3
			c0-0.3-0.2-0.5-0.4-0.7c-0.4-0.3-0.8-0.4-1.3-0.3l0,0c-0.1-0.2-0.3-0.5-0.6-0.6c-0.4-0.2-0.7-0.2-1.1-0.1
			c-0.3-0.3-0.8-0.3-0.9-0.4c-0.6-0.1-1.3,0.2-1.8,0.6C13,49.6,9.9,51,8.6,51.6c-0.7-1.2-1.2-2.6-1.7-4c-0.1-0.4-0.2-0.8-0.3-1.2
			c3.6-0.4,6.4-0.8,8.5-1.2c2.2-0.4,3.6-0.9,4.3-1.4c0.8-0.6,1.4-0.9,2.2-0.8c0.2,0,0.4,0,0.5,0.1c-0.2,0.1-0.3,0.1-0.4,0.2
			c-0.3,0.2-0.5,0.4-0.7,0.5c-0.2,0.1-0.3,0.3-0.6,0.4c-0.2,0.1-0.4,0.2-0.6,0.3c-0.5,0.2-0.9,0.4-1,0.8c-0.1,0.4-0.1,0.7,0.2,1
			c0.4,0.5,1,0.5,1.5,0.5c0.6,0,1.2-0.2,1.7-0.5c0.2-0.1,0.3-0.2,0.5-0.3c0.2-0.1,0.4-0.3,0.5-0.3c0,0,0,0,0,0
			c0.4-0.1,0.9-0.1,1.5,0.2c0.5,0.2,1,0.5,1.5,0.8c1.1,0.7,1.9,1.7,2.2,2C28.3,48.8,28.3,49,28.2,49.1z M29.7,48.8
			c-0.4-0.3-0.6-0.5-0.7-0.7c0,0,0,0,0,0l0,0c0,0-0.1-0.1-0.1-0.1c-0.4-0.5-1.2-1.3-2.2-2c-0.8-0.5-2.2-1.5-3.6-1.1
			c-0.3,0.1-0.5,0.2-0.8,0.4c-0.1,0.1-0.3,0.2-0.4,0.3c-0.4,0.3-1,0.4-1.3,0.4c-0.4,0-0.7,0-0.8-0.1c-0.1-0.1-0.1-0.2-0.1-0.2
			c0.1-0.1,0.4-0.2,0.6-0.3c0.2-0.1,0.5-0.2,0.7-0.4c0.3-0.2,0.4-0.3,0.6-0.5c0.2-0.1,0.4-0.3,0.7-0.5c0.4-0.3,0.9-0.3,1.6-0.3l0,0
			c0.1,0,0.2,0,0.3,0c0.1,0,0.2,0,0.3,0c0.7,0,1.4,0.2,2.4,0.6c0.3,0.1,0.6,0.2,1,0.4c0.1,0,1.4,0.5,3.3,0.9c1.6,0.4,4,0.9,6.3,1
			c-0.1,0.4-0.2,0.7-0.3,1.1c-0.5,1.5-1.1,2.9-1.8,4.1C34.2,51.3,31.5,50.1,29.7,48.8z M34.9,57.8c-1.1,1-2,1.4-2.6,1.5
			c-0.2,0-0.4,0.1-0.6,0.1c-0.2,0-0.3,0-0.4,0c0,0,0,0,0,0c0-0.8,0.3-1.5,0.9-2.2c0.2-0.2,0.4-0.4,0.7-0.6c0,0,0,0,0,0c0,0,0,0,0,0
			c-0.1,0.6-0.3,1.3-0.3,1.3c0,0.1,0,0.2,0.1,0.3c0.1,0.1,0.2,0.1,0.3,0.1C33.7,57.7,34.5,57.7,34.9,57.8
			C34.9,57.7,34.9,57.7,34.9,57.8C35,57.8,35,57.8,34.9,57.8z M36.9,55.2c-0.3,0.5-0.7,0.9-1.1,1.2c-0.4,0.3-0.8,0.6-1.3,0.7
			c-0.4,0.1-0.8,0.2-1,0.2c0,0-0.1,0-0.1,0c0,0,0,0,0,0c-0.1-0.7,0.2-1.5,0.7-2.3c0.2-0.2,0.3-0.5,0.5-0.7c0,0,0,0,0,0c0,0,0,0,0,0
			c0.1,0.7-0.1,1.3-0.1,1.3c0,0.1,0,0.2,0.1,0.3c0.1,0.1,0.2,0.1,0.3,0C35.7,55.4,36.4,55.2,36.9,55.2
			C36.9,55.2,36.9,55.2,36.9,55.2C36.9,55.2,36.9,55.2,36.9,55.2z M37.4,53.9c-0.4,0.4-0.8,0.6-1.2,0.8c-0.5,0.2-0.9,0.3-1.1,0.3h0
			c0,0,0,0,0,0c-0.1-0.7,0-1.5,0.4-2.4c0.1-0.3,0.3-0.5,0.5-0.7c0,0,0,0,0,0c0,0,0,0,0,0c0.1,0.6,0.1,1.3,0.1,1.3
			c0,0.1,0,0.2,0.1,0.2c0.1,0,0.2,0,0.3,0c0.7-0.6,1.4-0.8,1.9-0.9c0,0,0,0,0,0c0,0,0,0,0,0C38.1,53.1,37.8,53.5,37.4,53.9z
			 M38.9,51.2c-0.3,0.4-0.7,0.7-1.1,1c-0.4,0.3-0.8,0.4-1,0.4l0,0c0,0,0,0,0,0c-0.2-0.8-0.2-1.6,0.1-2.4c0.1-0.3,0.2-0.5,0.3-0.8
			c0,0,0,0,0,0c0,0,0,0,0,0c0.2,0.6,0.2,1.3,0.2,1.3c0,0.1,0.1,0.2,0.2,0.2c0.1,0,0.2,0,0.3-0.1h0c0.6-0.6,1.1-0.9,1.5-1
			c0.1,0,0.2-0.1,0.3-0.1c0,0,0,0,0,0c0,0,0,0,0,0C39.5,50.3,39.2,50.7,38.9,51.2z M39.9,48.3c-0.3,0.4-0.6,0.8-1,1.1
			c-0.4,0.3-0.8,0.5-1,0.5c0,0,0,0,0,0c0,0,0,0,0,0c-0.4-0.9-0.3-1.8-0.1-2.4c0.1-0.3,0.2-0.6,0.3-0.8c0,0,0,0,0,0l0,0c0,0,0,0,0,0
			c0.3,0.6,0.4,1.3,0.4,1.4c0,0.1,0.1,0.2,0.2,0.2c0.1,0,0.2,0,0.3-0.1c0.6-0.7,1.2-1.1,1.6-1.2c0,0,0,0,0,0c0,0,0,0,0,0
			C40.4,47.4,40.2,47.9,39.9,48.3z M40.7,45.3c-0.2,0.5-0.5,0.8-0.8,1.2c-0.4,0.4-0.7,0.5-0.9,0.6c0,0,0,0,0,0c0,0,0,0,0,0
			c-0.4-0.7-0.5-1.5-0.4-2.4c0-0.3,0.1-0.6,0.2-0.9c0,0,0,0,0,0c0,0,0,0,0,0c0.3,0.6,0.5,1.3,0.5,1.3c0,0.1,0.1,0.2,0.2,0.2
			c0.1,0,0.2,0,0.3-0.1c0.5-0.8,1.1-1.2,1.5-1.4c0,0,0,0,0,0c0,0,0,0,0,0C41.1,44.3,40.9,44.9,40.7,45.3z"/>
		<path class="st4" d="M27.5,15.3c0.6,0,1.1,0.1,1.7,0.4l0.1,0c0.3,0.1,0.9,0.1,1.5,0.2c0.1,0,0.1,0,0.2,0c-0.3-0.1-0.6-0.2-0.9-0.4
			c-0.2-0.1-0.3-0.2-0.5-0.3c-0.6-0.3-1.3-0.4-1.3-0.4c-0.1,0-0.1-0.1-0.1-0.2c0-0.1,0.1-0.2,0.1-0.2l3-0.4l-3-0.4
			c-0.1,0-0.1-0.1-0.1-0.1c0-0.1,0-0.1,0.1-0.2c0,0,0.5-0.3,1.2-0.5c0.3-0.1,0.9-0.2,1.5-0.4c0.1,0,0.1,0,0.2-0.1
			c-0.4,0-0.6,0-0.9,0c-0.2,0-0.4,0-0.6,0c-0.7,0-1.3,0.1-1.4,0.1c-0.1,0-0.2,0-0.2-0.1c0-0.1,0-0.2,0.1-0.2l2.6-1.6l-2.9,0.7
			c-0.1,0-0.1,0-0.2-0.1c0-0.1,0-0.1,0-0.2c0,0,0.3-0.5,0.9-0.9c0.2-0.2,0.7-0.5,1.2-1c0,0,0.1-0.1,0.1-0.1
			c-0.3,0.2-0.6,0.2-0.9,0.3c-0.2,0.1-0.4,0.1-0.6,0.2c-0.7,0.3-1.2,0.6-1.2,0.7c-0.1,0.1-0.2,0-0.2,0c-0.1-0.1-0.1-0.2,0-0.2
			l1.8-2.4l-2.4,1.8c-0.1,0-0.1,0-0.2,0c-0.1,0-0.1-0.1-0.1-0.2c0,0,0.1-0.6,0.5-1.2c0.2-0.3,0.5-0.8,0.8-1.4c0,0,0-0.1,0.1-0.1
			c-0.2,0.3-0.5,0.5-0.7,0.6c-0.1,0.1-0.3,0.2-0.5,0.4c-0.5,0.5-0.8,1-0.9,1.1c0,0.1-0.1,0.1-0.2,0.1c-0.1,0-0.1-0.1-0.1-0.2
			l0.7-2.9L24,8.1c0,0.1-0.1,0.1-0.2,0.1c-0.1,0-0.1-0.1-0.1-0.1c0,0-0.1-0.6,0-1.3c0.1-0.3,0.1-0.9,0.2-1.5c0-0.1,0-0.1,0-0.2
			c-0.1,0.3-0.2,0.6-0.4,0.9c-0.1,0.2-0.2,0.3-0.3,0.5c-0.3,0.7-0.4,1.3-0.4,1.3c0,0.1-0.1,0.1-0.2,0.1c-0.1,0-0.2-0.1-0.2-0.1
			l-0.4-3l-0.4,3c0,0.1-0.1,0.1-0.1,0.1c-0.1,0-0.1,0-0.2-0.1c0-0.1-0.3-0.5-0.5-1.2c-0.1-0.3-0.2-0.9-0.4-1.5c0-0.1,0-0.1-0.1-0.2
			c0,0.4,0,0.6,0,0.9c0,0.2,0,0.4,0,0.6c0,0.7,0.1,1.4,0.1,1.4c0,0.1,0,0.2-0.1,0.2c-0.1,0-0.2,0-0.2-0.1l-1.6-2.6l0.8,2.9
			c0,0.1,0,0.1-0.1,0.2c-0.1,0-0.1,0-0.2,0c0,0-0.5-0.4-0.9-0.9c-0.2-0.2-0.5-0.7-1-1.2c0,0-0.1-0.1-0.1-0.1
			c0.2,0.3,0.2,0.6,0.3,0.9c0.1,0.2,0.1,0.4,0.2,0.6C17.8,8.5,18.2,9,18.2,9c0.1,0.1,0,0.2,0,0.2c-0.1,0.1-0.2,0.1-0.2,0l-2.4-1.8
			l1.8,2.4c0,0.1,0,0.1,0,0.2c0,0.1-0.1,0.1-0.2,0.1c0,0-0.6-0.1-1.2-0.5c-0.3-0.2-0.8-0.5-1.4-0.8c0,0-0.1,0-0.1-0.1
			c0.3,0.2,0.5,0.5,0.6,0.7c0.1,0.1,0.2,0.3,0.4,0.5c0.5,0.5,1.1,0.9,1.1,0.9c0.1,0,0.1,0.1,0.1,0.2c0,0.1-0.1,0.1-0.2,0.1l-3-0.7
			l2.6,1.6c0.1,0,0.1,0.1,0.1,0.2c0,0.1-0.1,0.1-0.1,0.1c0,0-0.6,0.1-1.3,0c-0.3-0.1-0.9-0.1-1.5-0.2c-0.1,0-0.1,0-0.2,0
			c0.3,0.1,0.6,0.2,0.9,0.4c0.2,0.1,0.3,0.2,0.5,0.3c0.7,0.3,1.3,0.4,1.3,0.4c0.1,0,0.1,0.1,0.1,0.2c0,0.1-0.1,0.2-0.1,0.2l-3,0.4
			l3,0.4c0.1,0,0.1,0.1,0.1,0.1c0,0.1,0,0.1-0.1,0.2c0,0-0.5,0.3-1.2,0.5c-0.3,0.1-0.9,0.2-1.5,0.4c-0.1,0-0.1,0-0.2,0.1
			c0.4,0,0.6,0,0.9,0c0,0,0.5,0,0.6,0c0.2,0,0.3,0,0.5,0l0,0c0.6-0.4,1.3-0.7,2.2-1c0.1,0,0.2,0,0.3,0.1c0.1,0.1,0.1,0.1,0.1,0.2
			c0.2-0.1,0.3-0.2,0.5-0.2c0.6-0.3,1.4-0.5,2.3-0.5c0.1,0,0.2,0,0.3,0.1c0.1,0.1,0.1,0.1,0.1,0.2c0.2-0.1,0.5-0.2,0.8-0.2
			c0.7-0.1,1.5-0.1,2.3,0c0.1,0,0.2,0.1,0.3,0.2c0,0,0,0.1,0,0.1c0.2,0,0.5-0.1,0.7-0.1c0.7,0,1.5,0.2,2.3,0.4
			C27.3,15,27.4,15.1,27.5,15.3C27.5,15.2,27.5,15.2,27.5,15.3z"/>
		<g>
			<path class="st0" d="M23.1,11.4c2.9-0.5,3.2,0.4,3.2,0.4s0.1,0.2,0.3,0.1c0,0,0.2,0,0.1-0.3c0,0-0.3-1-1.9-1.1c0,0-0.8-0.1-1.7,0
				c-0.3,0-0.3,0.6-0.3,0.6C22.8,11.5,23.1,11.4,23.1,11.4z"/>
			<path class="st0" d="M20.6,12c-0.4-0.2-1.2-0.1-1.2-0.1c-1.3,0-1.7,0.9-1.7,0.9c-0.1,0.3,0.1,0.3,0.1,0.3
				c0.3,0.1,0.4-0.2,0.4-0.2s0.1-0.2,0.6-0.4c0,0.1,0,0.2,0,0.3c0,0.4,0.3,0.7,0.7,0.7c0.4,0,0.7-0.3,0.7-0.7c0-0.1,0-0.2-0.1-0.3
				c0.2,0.1,0.4,0.2,0.5,0.4c0,0.1,0.1,0.1,0.4,0.1c0.3,0,0.2-0.2,0.2-0.2C21,12.2,20.6,12,20.6,12z"/>
			<path class="st0" d="M23,13.1c0.3,0,0.4,0,0.4-0.1c0.1-0.2,0.3-0.4,0.5-0.4c0,0.1-0.1,0.2-0.1,0.3c0,0.4,0.3,0.7,0.7,0.7
				c0.4,0,0.7-0.3,0.7-0.7c0-0.1,0-0.2,0-0.3c0.5,0.1,0.6,0.4,0.6,0.4s0.1,0.2,0.4,0.2c0,0,0.2,0,0.1-0.3c0,0-0.3-0.8-1.7-0.9
				c0,0-0.8,0-1.2,0.1c0,0-0.4,0.2-0.6,0.9C22.8,12.9,22.8,13.1,23,13.1z"/>
			<path class="st0" d="M17.4,12c0.2,0.1,0.3-0.1,0.3-0.1s0.3-0.8,3.2-0.4c0,0,0.3,0.1,0.2-0.2c0,0-0.1-0.6-0.3-0.6
				c-0.9-0.2-1.7,0-1.7,0c-1.6,0.2-1.9,1.1-1.9,1.1C17.2,11.9,17.4,12,17.4,12z"/>
		</g>
		<g>
			<path class="st5" d="M34.9,57.7c-0.5-0.1-1.2-0.1-2,0.3c-0.1,0-0.2,0-0.3-0.1c-0.1-0.1-0.1-0.2-0.1-0.3c0,0,0.3-0.6,0.3-1.3
				c0,0,0,0,0,0c0,0,0,0,0,0c-0.2,0.2-0.5,0.4-0.7,0.6c-0.6,0.7-0.9,1.5-0.9,2.2c0,0,0,0,0,0c0.1,0,0.2,0,0.4,0c0.2,0,0.4,0,0.6-0.1
				C32.9,59.1,33.9,58.8,34.9,57.7C35,57.8,35,57.8,34.9,57.7C34.9,57.7,34.9,57.7,34.9,57.7z"/>
			<path class="st5" d="M11.2,56.4C11.2,56.4,11.2,56.4,11.2,56.4C11.2,56.4,11.2,56.4,11.2,56.4c0,0.7,0.3,1.3,0.3,1.3
				c0,0.1,0,0.2-0.1,0.3C11.4,58,11.2,58,11.1,58c-0.9-0.3-1.6-0.3-2-0.3c0,0,0,0,0,0c0,0,0,0,0,0c0.9,0.8,1.7,1.3,2.6,1.5
				c0.2,0,0.4,0.1,0.6,0.1c0.2,0,0.3,0,0.4,0c0,0,0,0,0,0C12.8,57.9,11.8,56.9,11.2,56.4z"/>
			<path class="st5" d="M36.9,55.2c-0.5,0-1.2,0.2-2,0.7c-0.1,0.1-0.2,0.1-0.3,0c-0.1-0.1-0.1-0.2-0.1-0.3c0,0,0.1-0.7,0.1-1.3
				c0,0,0,0,0,0c0,0,0,0,0,0c-0.2,0.2-0.4,0.5-0.5,0.7c-0.5,0.8-0.7,1.5-0.7,2.3c0,0,0,0,0,0c0,0,0.1,0,0.1,0c0.2,0,0.6,0,1-0.2
				c0.4-0.1,0.9-0.4,1.3-0.7C36.1,56.1,36.5,55.7,36.9,55.2C36.9,55.2,36.9,55.2,36.9,55.2C36.9,55.2,36.9,55.2,36.9,55.2z"/>
			<path class="st5" d="M38.4,52.6c-0.5,0.1-1.2,0.3-1.9,0.9c-0.1,0.1-0.2,0.1-0.3,0c-0.1,0-0.1-0.1-0.1-0.2c0,0,0.1-0.7-0.1-1.3
				c0,0,0,0,0,0c0,0,0,0,0,0c-0.2,0.2-0.3,0.5-0.5,0.7c-0.4,0.8-0.6,1.6-0.4,2.4c0,0,0,0,0,0h0c0.2,0,0.6-0.1,1.1-0.3
				c0.4-0.2,0.8-0.5,1.2-0.8C37.8,53.5,38.1,53.1,38.4,52.6C38.4,52.6,38.4,52.6,38.4,52.6C38.4,52.6,38.4,52.6,38.4,52.6z"/>
			<path class="st5" d="M39.7,49.7c-0.1,0-0.2,0-0.3,0.1c-0.4,0.1-0.9,0.4-1.5,1h0c-0.1,0.1-0.2,0.1-0.3,0.1c-0.1,0-0.2-0.1-0.2-0.2
				c0,0,0-0.7-0.2-1.3c0,0,0,0,0,0c0,0,0,0,0,0c-0.1,0.2-0.3,0.5-0.3,0.8c-0.3,0.9-0.4,1.7-0.1,2.4c0,0,0,0,0,0l0,0
				c0.2,0,0.6-0.1,1-0.4c0.4-0.2,0.8-0.6,1.1-1C39.2,50.7,39.5,50.3,39.7,49.7C39.7,49.7,39.7,49.7,39.7,49.7
				C39.7,49.7,39.7,49.7,39.7,49.7z"/>
			<path class="st5" d="M40.6,46.8c-0.4,0.2-1.1,0.5-1.6,1.2c-0.1,0.1-0.2,0.1-0.3,0.1c-0.1,0-0.2-0.1-0.2-0.2c0,0-0.1-0.7-0.4-1.4
				c0,0,0,0,0,0h0c0,0,0,0,0,0c-0.1,0.3-0.2,0.6-0.3,0.8c-0.2,0.6-0.3,1.6,0.1,2.4c0,0,0,0,0,0c0,0,0,0,0,0c0.2,0,0.6-0.2,1-0.5
				c0.4-0.3,0.7-0.6,1-1.1C40.2,47.9,40.4,47.4,40.6,46.8C40.6,46.8,40.6,46.8,40.6,46.8C40.6,46.8,40.6,46.8,40.6,46.8z"/>
			<path class="st5" d="M41.2,43.7c-0.4,0.2-1,0.7-1.5,1.4c-0.1,0.1-0.2,0.1-0.3,0.1c-0.1,0-0.2-0.1-0.2-0.2c0,0-0.2-0.7-0.5-1.3
				c0,0,0,0,0,0c0,0,0,0,0,0c-0.1,0.3-0.1,0.6-0.2,0.9c-0.1,0.9,0,1.8,0.4,2.4c0,0,0,0,0,0c0,0,0,0,0,0c0.2-0.1,0.5-0.3,0.9-0.6
				c0.3-0.3,0.6-0.7,0.8-1.2C40.9,44.9,41.1,44.3,41.2,43.7C41.2,43.8,41.2,43.8,41.2,43.7C41.2,43.7,41.2,43.7,41.2,43.7z"/>
			<path class="st5" d="M40.2,42.3c0,0.1-0.1,0.2-0.2,0.1c-0.1,0-0.2-0.1-0.2-0.2c0,0-0.2-0.7-0.7-1.2c0,0,0,0,0,0c0,0,0,0,0,0
				c-0.1,0.3-0.1,0.6-0.1,0.9c0,0.9,0.2,1.7,0.7,2.3c0,0,0,0,0,0c0,0,0,0,0,0c0.1-0.1,0.5-0.3,0.8-0.7c0.3-0.3,0.5-0.8,0.7-1.2
				c0.2-0.5,0.3-1,0.3-1.6c0,0,0,0,0,0c0,0,0,0,0,0C41.1,41,40.5,41.4,40.2,42.3z"/>
			<path class="st5" d="M40,39.5c-0.1,0-0.2,0-0.2-0.1c0,0-0.3-0.6-0.7-1.1c0,0,0,0,0,0c0,0,0,0,0,0c0,0.7,0.1,2.1,0.9,3.1
				c0,0,0,0,0,0s0,0,0,0c0.1-0.1,0.5-0.3,0.8-0.8c0.3-0.4,0.5-0.8,0.6-1.3c0.1-0.5,0.2-1,0.2-1.6c0,0,0,0,0,0c0,0,0,0,0,0
				c-0.4,0.3-0.8,0.8-1.1,1.7C40.2,39.4,40.1,39.5,40,39.5z"/>
			<path class="st5" d="M39.9,36.5c-0.1,0-0.2,0-0.3-0.1c0,0-0.3-0.6-0.8-1c0,0,0,0,0,0c0,0,0,0,0,0c0.1,0.8,0.3,2.3,1.1,3
				c0,0,0,0,0,0s0,0,0,0c0.1-0.1,0.4-0.4,0.7-0.9c0.2-0.4,0.4-0.9,0.5-1.4c0.1-0.5,0.1-1,0-1.6c0,0,0,0,0,0c0,0,0,0,0,0
				c-0.3,0.3-0.8,0.9-1,1.8C40.1,36.4,40,36.5,39.9,36.5z"/>
			<path class="st5" d="M39.5,33.6c-0.1,0-0.2,0-0.3-0.1c0,0-0.4-0.6-0.9-1c0,0,0,0,0,0c0,0,0,0,0,0c0,0.3,0.1,0.6,0.1,0.9
				c0.2,0.6,0.5,1.5,1.2,2.1c0,0,0,0,0,0c0,0,0,0,0,0c0.1-0.1,0.4-0.4,0.7-0.9c0.2-0.4,0.3-0.9,0.4-1.4c0.1-0.5,0-1-0.1-1.6
				c0,0,0,0,0,0c0,0,0,0,0,0c-0.3,0.4-0.7,1-0.9,1.8C39.7,33.5,39.6,33.6,39.5,33.6z"/>
			<path class="st5" d="M38.9,30.8c-0.1,0-0.2,0-0.3-0.1c0,0-0.5-0.5-1-0.8c0,0,0,0,0,0c0,0,0,0,0,0c0.1,0.3,0.1,0.6,0.3,0.8
				c0.3,0.9,0.8,1.5,1.5,1.9c0,0,0,0,0,0c0,0,0,0,0,0c0.1-0.1,0.4-0.5,0.5-1c0.1-0.4,0.2-0.9,0.2-1.4c0-0.5-0.1-1-0.3-1.6
				c0,0,0,0,0,0c0,0,0,0,0,0c-0.3,0.4-0.6,1-0.6,1.9C39,30.6,39,30.7,38.9,30.8z"/>
			<path class="st5" d="M37.6,27.9c0,0-0.5-0.5-1.1-0.7c0,0,0,0,0,0c0,0,0,0,0,0c0.1,0.3,0.2,0.5,0.3,0.8c0.4,0.8,1,1.4,1.7,1.7
				c0,0,0,0,0,0c0,0,0,0,0,0c0.1-0.1,0.3-0.5,0.4-1c0.1-0.4,0.1-0.9,0-1.4c-0.1-0.5-0.2-1-0.5-1.6c0,0,0,0,0,0c0,0,0,0,0,0
				c-0.2,0.4-0.5,1.1-0.4,2c0,0.1-0.1,0.2-0.1,0.2h0C37.8,28,37.7,28,37.6,27.9z"/>
			<path class="st5" d="M35.1,24.7C35.1,24.7,35.1,24.7,35.1,24.7c0.1,0.3,0.3,0.6,0.4,0.8c0.5,0.8,1.1,1.3,1.9,1.6c0,0,0,0,0,0
				s0,0,0,0c0.1-0.1,0.2-0.5,0.3-1.1c0-0.5,0-0.9-0.1-1.4c-0.1-0.5-0.3-1-0.6-1.5c0,0,0,0,0,0c0,0,0,0,0,0c-0.2,0.4-0.3,1.1-0.2,2
				c0,0.1,0,0.2-0.1,0.3h0c-0.1,0.1-0.2,0-0.3,0C36.3,25.3,35.7,24.9,35.1,24.7C35.1,24.7,35.1,24.7,35.1,24.7z"/>
			<path class="st5" d="M33.4,22.5C33.4,22.5,33.4,22.5,33.4,22.5c0.2,0.3,0.4,0.5,0.6,0.7c0.6,0.7,1.3,1.1,2.1,1.2l0,0c0,0,0,0,0,0
				c0.1-0.2,0.2-0.6,0.1-1.1c0-0.5-0.1-0.9-0.4-1.4c-0.2-0.5-0.5-0.9-0.9-1.4c0,0,0,0,0,0c0,0,0,0,0,0c-0.1,0.5-0.1,1.2,0.1,2
				c0,0.1,0,0.2-0.1,0.3c-0.1,0.1-0.2,0.1-0.3,0C34.7,22.9,34.1,22.5,33.4,22.5C33.4,22.4,33.4,22.5,33.4,22.5z"/>
			<path class="st5" d="M33.1,20.7c-0.1,0.1-0.2,0.1-0.3,0.1c0,0-0.6-0.2-1.2-0.2c0,0-0.1,0-0.1,0c0,0,0,0,0,0c0,0,0,0,0,0
				c0.2,0.2,0.5,0.5,0.7,0.7c0.5,0.4,1.3,0.9,2.1,0.9c0,0,0,0,0,0c0,0,0,0,0,0c0-0.2,0.1-0.6-0.1-1.1c-0.1-0.5-0.3-0.9-0.6-1.3
				c-0.3-0.4-0.6-0.8-1.1-1.2c0,0,0,0,0,0c0,0,0,0,0,0c0,0.5,0.1,1.2,0.5,2C33.2,20.5,33.1,20.6,33.1,20.7z"/>
			<path class="st5" d="M10.6,57.3c0,0,0.1,0,0.1,0c0,0,0,0,0,0c0.1-1.2-0.7-2.4-1.2-3c0,0,0,0,0,0c0,0,0,0,0,0
				c-0.1,0.7,0.1,1.3,0.1,1.3c0,0.1,0,0.2-0.1,0.3c-0.1,0.1-0.2,0.1-0.3,0c-0.8-0.5-1.5-0.6-2-0.7c0,0,0,0,0,0c0,0,0,0,0,0
				c0.3,0.5,0.7,0.9,1.1,1.2c0.4,0.3,0.8,0.6,1.3,0.7C10,57.2,10.4,57.3,10.6,57.3z"/>
			<path class="st5" d="M8.9,55L8.9,55C8.9,55,8.9,55,8.9,55c0.2-0.9-0.1-1.8-0.4-2.3c-0.1-0.3-0.3-0.5-0.4-0.8c0,0,0,0,0,0
				c0,0,0,0,0,0c-0.1,0.7-0.1,1.3-0.1,1.3c0,0.1,0,0.2-0.1,0.3c-0.1,0.1-0.2,0-0.3,0c-0.7-0.6-1.4-0.8-1.9-0.9c0,0,0,0,0,0
				c0,0,0,0,0,0c0.3,0.5,0.6,0.9,1,1.3c0.4,0.4,0.8,0.6,1.2,0.8C8.3,54.9,8.7,55,8.9,55z"/>
			<path class="st5" d="M7.3,52.5L7.3,52.5C7.3,52.5,7.3,52.5,7.3,52.5c0.2-0.8,0.2-1.6-0.1-2.4c-0.1-0.3-0.2-0.5-0.4-0.8
				c0,0,0,0,0,0c0,0,0,0,0,0c-0.2,0.6-0.2,1.3-0.2,1.3c0,0.1-0.1,0.2-0.2,0.2c-0.1,0-0.2,0-0.3-0.1c-0.6-0.6-1.1-0.8-1.5-1
				c-0.1,0-0.2-0.1-0.3-0.1c0,0,0,0,0,0c0,0,0,0,0,0c0.2,0.5,0.5,1,0.8,1.4c0.3,0.4,0.7,0.7,1.1,1C6.7,52.4,7.2,52.5,7.3,52.5z"/>
			<path class="st5" d="M6,49.9C6,49.9,6,49.9,6,49.9C6.1,49.9,6.1,49.9,6,49.9c0.6-1.3,0.2-2.6-0.1-3.3c0,0,0,0,0,0h0c0,0,0,0,0,0
				c-0.3,0.6-0.4,1.3-0.4,1.3c0,0.1-0.1,0.2-0.2,0.2c-0.1,0-0.2,0-0.3-0.1c-0.5-0.6-1-1-1.4-1.1c-0.1,0-0.2-0.1-0.2-0.1c0,0,0,0,0,0
				c0,0,0,0,0,0C4.1,49.1,5.5,49.7,6,49.9z"/>
			<path class="st5" d="M4.1,46.6c0.4,0.4,0.8,0.5,1,0.6c0,0,0,0,0,0c0,0,0,0,0,0c0.5-0.8,0.6-1.6,0.4-2.5c-0.1-0.3-0.2-0.6-0.3-0.8
				c0,0,0,0,0,0c0,0,0,0,0,0c-0.3,0.6-0.5,1.3-0.5,1.3l0,0h0l0,0h0l0,0v0c0,0.1-0.1,0.2-0.2,0.2c-0.1,0-0.2,0-0.3-0.1
				c-0.5-0.8-1.1-1.2-1.5-1.4c0,0,0,0,0,0c0,0,0,0,0,0C2.8,44.5,3,45,3.3,45.4C3.5,45.9,3.8,46.3,4.1,46.6z"/>
			<path class="st5" d="M4.3,44.3C4.3,44.3,4.3,44.3,4.3,44.3C4.3,44.3,4.3,44.3,4.3,44.3c1-1.3,0.9-2.6,0.7-3.2c0,0,0,0,0,0
				c0,0,0,0,0,0c-0.4,0.5-0.7,1.2-0.7,1.2c0,0.1-0.1,0.2-0.2,0.2h0l0,0c-0.1,0-0.2-0.1-0.2-0.2c-0.3-0.7-0.7-1.2-1.1-1.4
				c-0.1-0.1-0.1-0.1-0.2-0.2c0,0,0,0,0,0c0,0,0,0,0,0C2.6,43.1,3.8,44,4.3,44.3z"/>
			<path class="st5" d="M4.1,41.4C4.1,41.5,4.1,41.5,4.1,41.4C4.1,41.5,4.1,41.4,4.1,41.4c0.5-0.4,0.8-1,0.9-1.7
				c0.1-0.6,0.1-1.1,0-1.5c0,0,0,0,0,0c0,0,0,0,0,0c-0.5,0.5-0.6,1.1-0.6,1.1v0c0,0.1-0.1,0.2-0.2,0.2c-0.1,0-0.2-0.1-0.3-0.2
				c-0.2-0.7-0.6-1.3-0.9-1.5c-0.1-0.1-0.1-0.1-0.2-0.2c0,0,0,0,0,0c0,0,0,0,0,0C2.5,40.1,3.6,41.1,4.1,41.4z"/>
			<path class="st5" d="M3.4,37.5c0.3,0.5,0.6,0.8,0.7,0.9c0,0,0,0,0,0s0,0,0,0c0.6-0.5,0.9-1.2,1.1-2.1c0-0.3,0.1-0.6,0.1-0.9
				c0,0,0,0,0,0c0,0,0,0,0,0c-0.5,0.5-0.8,1-0.8,1c0,0.1-0.1,0.2-0.3,0.1c-0.1,0-0.2-0.1-0.2-0.2c-0.2-0.9-0.7-1.5-1-1.8
				c0,0,0,0,0,0c0,0,0,0,0,0c-0.1,0.6-0.1,1.1,0,1.6C3,36.7,3.1,37.1,3.4,37.5z"/>
			<path class="st5" d="M3.7,34.6c0.2,0.5,0.5,0.7,0.6,0.9c0,0,0,0,0,0c0,0,0,0,0,0c0.6-0.6,1.1-1.3,1.3-2.2
				c0.1-0.3,0.1-0.5,0.1-0.8c0,0,0,0,0,0c0,0,0,0,0,0c-0.5,0.4-0.9,1-0.9,1c-0.1,0.1-0.2,0.1-0.3,0.1c-0.1,0-0.2-0.1-0.2-0.2
				c-0.2-0.9-0.6-1.5-0.9-1.8c0,0,0,0,0,0c0,0,0,0,0,0c-0.1,0.6-0.1,1.1-0.1,1.6C3.3,33.7,3.5,34.1,3.7,34.6z"/>
			<path class="st5" d="M4.7,32.6C4.7,32.6,4.7,32.6,4.7,32.6C4.7,32.6,4.7,32.6,4.7,32.6c0.8-0.5,1.3-1.1,1.6-2
				c0.1-0.3,0.1-0.5,0.2-0.8c0,0,0,0,0,0c0,0,0,0,0,0c-0.6,0.4-1.1,0.9-1.1,0.9c-0.1,0.1-0.2,0.1-0.3,0.1c-0.1,0-0.2-0.1-0.2-0.2
				c-0.1-0.9-0.4-1.6-0.7-1.9c0,0,0,0,0,0c0,0,0,0,0,0C4.1,29.1,4,29.7,4,30.2c0,0.5,0.1,1,0.2,1.4C4.4,32.1,4.6,32.4,4.7,32.6z"/>
			<path class="st5" d="M5.5,29.7C5.5,29.7,5.5,29.7,5.5,29.7C5.5,29.7,5.5,29.7,5.5,29.7c0.8-0.4,1.5-1,1.8-1.8
				c0.1-0.2,0.2-0.5,0.3-0.7c0,0,0,0,0,0c0,0,0,0,0,0c-0.6,0.3-1.2,0.7-1.2,0.8C6.3,28,6.2,28,6.1,28c-0.1,0-0.1-0.1-0.1-0.2
				c0-0.9-0.2-1.6-0.4-2c0,0,0,0,0,0h0c0,0,0,0,0,0c-0.2,0.5-0.4,1.1-0.5,1.6c-0.1,0.5-0.1,1,0,1.4C5.2,29.2,5.4,29.6,5.5,29.7z"/>
			<path class="st5" d="M6.5,27C6.5,27,6.5,27,6.5,27C6.5,27,6.5,27,6.5,27c0.8-0.2,1.4-0.7,2-1.4C8.7,25.3,8.9,25,9,24.8
				c0,0,0,0,0,0c0,0,0,0,0,0c-0.7,0.1-1.2,0.6-1.2,0.6c-0.1,0.1-0.2,0.1-0.3,0c-0.1-0.1-0.2-0.2-0.1-0.3c0.2-0.9,0-1.6-0.1-2
				c0,0,0,0,0,0c0,0,0,0,0,0c-0.3,0.5-0.6,1-0.7,1.5c-0.2,0.5-0.2,1-0.2,1.4C6.3,26.5,6.5,26.9,6.5,27z"/>
			<path class="st5" d="M8,24.4L8,24.4c1.2-0.2,2.2-1.3,2.6-2c0,0,0,0,0,0c0,0,0,0,0,0c-0.7,0.1-1.3,0.4-1.3,0.4
				c-0.1,0.1-0.2,0.1-0.3,0C9,22.8,9,22.7,9,22.6c0.3-0.9,0.2-1.6,0.1-2c0,0,0,0,0,0c0,0,0,0,0,0C7.6,22.4,7.8,23.9,8,24.4
				C8,24.4,8,24.4,8,24.4z"/>
			<path class="st5" d="M9.7,22C9.8,22,9.8,22,9.7,22c0.8,0,1.6-0.5,2.1-0.9c0.3-0.2,0.5-0.4,0.8-0.7c0,0,0,0,0,0c0,0,0,0,0,0
				c-0.7,0-1.3,0.2-1.3,0.2c-0.1,0-0.2,0-0.3-0.1c-0.1-0.1-0.1-0.2,0-0.3c0.4-0.8,0.5-1.5,0.5-2c0,0,0,0,0,0c0,0,0,0,0,0
				c-0.4,0.4-0.8,0.8-1.1,1.2c-0.3,0.4-0.5,0.9-0.6,1.3C9.7,21.4,9.7,21.9,9.7,22C9.7,22,9.7,22,9.7,22z"/>
			<path class="st5" d="M14.8,18.8c-0.7-0.1-1.3,0.1-1.3,0.1c-0.1,0-0.2,0-0.3-0.1c-0.1-0.1-0.1-0.2,0-0.3c0.5-0.8,0.6-1.5,0.7-1.9
				c0,0,0,0,0,0c0,0,0,0,0,0c-2,1.4-2.1,2.9-2.1,3.5c0,0,0,0,0,0c0,0,0.1,0,0.1,0C13.2,20,14.3,19.3,14.8,18.8
				C14.9,18.8,14.9,18.8,14.8,18.8C14.9,18.8,14.9,18.8,14.8,18.8z"/>
			<path class="st5" d="M17.3,17.6c-0.2-0.1-0.4-0.1-0.7-0.1c-0.4,0-0.6,0-0.6,0l0,0c-0.1,0-0.2-0.1-0.2-0.2c0-0.1,0-0.2,0.1-0.3
				c0.7-0.6,1-1.1,1.1-1.5c0,0,0,0,0,0c0,0,0,0,0,0c-2.3,0.8-2.8,2.1-2.9,2.6c0,0,0,0,0,0c0.2,0.1,0.5,0.1,0.9,0.1
				c0.4,0,0.9-0.1,1.5-0.3C16.8,17.9,17.1,17.7,17.3,17.6C17.4,17.6,17.4,17.6,17.3,17.6C17.4,17.6,17.4,17.6,17.3,17.6z"/>
			<path class="st5" d="M20.1,16.8c-0.6-0.3-1.3-0.4-1.3-0.4c-0.1,0-0.2-0.1-0.2-0.2c0-0.1,0-0.2,0.1-0.3c0.7-0.4,1.1-0.7,1.3-1
				c0,0,0,0,0,0c0,0,0,0,0,0c-1.2,0.2-2.1,0.6-2.7,1.1c-0.3,0.3-0.5,0.6-0.5,0.8c0,0,0,0,0,0c0.5,0.2,1,0.3,1.5,0.3
				c0.3,0,0.6,0,0.9-0.1C19.5,17,19.8,17,20.1,16.8C20.1,16.9,20.1,16.9,20.1,16.8C20.1,16.9,20.1,16.9,20.1,16.8z"/>
			<path class="st5" d="M21.8,16.1c-0.1,0-0.2-0.1-0.2-0.2c0-0.1,0.1-0.2,0.2-0.2c0.7-0.2,1.2-0.5,1.4-0.7c0,0,0,0,0,0c0,0,0,0,0,0
				c-1.1-0.1-2.1,0.1-2.8,0.6c-0.4,0.2-0.6,0.5-0.7,0.6c0,0,0,0,0,0c0.8,0.6,1.8,0.7,2.5,0.7c0.2,0,0.5,0,0.6,0c0,0,0,0,0,0
				c0,0,0,0,0,0C22.5,16.3,21.9,16.1,21.8,16.1z"/>
			<path class="st5" d="M24.8,16.3c-0.1-0.1-0.1-0.2-0.1-0.3c0-0.1,0.1-0.2,0.2-0.2c0.8-0.1,1.3-0.3,1.5-0.4c0,0,0,0,0,0
				c0,0,0,0,0,0c-1.1-0.3-2.1-0.3-2.8,0c-0.4,0.2-0.7,0.4-0.8,0.5c0,0,0,0,0,0c0.9,1.1,2.3,1.3,3,1.4h0c0,0,0,0,0,0c0,0,0,0,0,0
				C25.4,16.7,24.8,16.3,24.8,16.3z"/>
			<path class="st5" d="M32.2,20C32.3,20,32.3,20,32.2,20c0-0.3,0-0.7-0.2-1.3c-0.3-0.9-1-1.5-2.1-1.8c0,0,0,0,0,0c0,0,0,0,0,0
				c0.1,0.4,0.4,1,0.8,1.5c0.1,0.1,0.1,0.2,0,0.3c-0.1,0.1-0.2,0.1-0.3,0.1c0,0-0.6-0.1-1.3,0c0,0,0,0,0,0c0,0,0,0,0,0
				c0.6,0.4,1.9,1.1,2.9,1.1C32.2,20,32.2,20,32.2,20z"/>
			<path class="st5" d="M29.9,18.2C29.9,18.1,29.9,18.1,29.9,18.2c-0.6-0.6-1.3-0.9-2.2-0.8c-0.3,0-0.6,0.1-0.9,0.2c0,0,0,0,0,0
				c0,0,0,0,0,0c0.7,0.5,1.4,0.8,2.1,0.8c0,0,0.1,0,0.1,0C29.4,18.3,29.7,18.2,29.9,18.2C29.9,18.2,29.9,18.2,29.9,18.2z"/>
			<path class="st5" d="M25.7,16.3C25.7,16.3,25.7,16.3,25.7,16.3c0.4,0.3,1,0.5,1.6,0.5c0.3,0,0.5,0,0.8-0.1
				c0.5-0.1,0.9-0.2,1.1-0.3c0,0,0,0,0,0c0,0,0,0,0,0c-0.4-0.2-0.8-0.4-1.3-0.5c-0.5-0.1-0.9-0.1-1.3,0C26.2,16,25.9,16.2,25.7,16.3
				C25.7,16.3,25.7,16.3,25.7,16.3z"/>
		</g>
		<g>
			<path class="st6" d="M17.2,32.9c0.1,0.2,0.4,0.3,0.7,0.3h3.3c-2-1.2-2.7-1-4.1-0.4C17.2,32.8,17.2,32.9,17.2,32.9z"/>
			<path class="st6" d="M25.3,31.4c-0.3-0.1-0.6-0.2-0.9-0.3c-1-0.4-1.9-1.1-1.9-1.1c-0.2-0.2-0.2-0.5-0.1-0.7
				c0.2-0.2,0.5-0.2,0.7-0.1c0,0,0.8,0.6,1.7,1c0.2,0.1,0.5,0.2,0.7,0.2c0.4,0.1,0.9,0.2,1.3,0.5c-0.1-0.5-0.2-1-0.3-1.5
				c-1.3-0.3-2.4-1.2-2.5-1.2c-0.1-0.1-0.2-0.2-0.2-0.3c0-0.1,0-0.3,0.1-0.4c0.2-0.2,0.5-0.2,0.7-0.1c0,0,0.7,0.6,1.6,0.9
				c-0.4-1.3-0.8-2.5-1.5-3.8c-0.4-0.9-1.1-1.5-2-1.7c-0.6-0.2-1.1-0.2-1.1-0.2c0,0,0,0,0,0c0,0-1.6,0-2.6,1.2c0,0,0,0,0,0
				c-0.2,0.2-0.7,0.8-0.8,1.2c0,0.2,0,0.4,0.2,0.5c0.1,0,0.3,0.1,0.8-0.2c0.1-0.1,0.2-0.1,0.2-0.2c0.2-0.1,0.5-0.1,0.7,0.1
				c0.2,0.2,0.1,0.5-0.1,0.7c-0.1,0.1-0.1,0.1-0.2,0.2c-0.2,0.2-0.6,0.5-1.1,1.1c-0.6,0.8-1.4,2.2-1.8,4.2c0,0,0,0.1,0,0.1
				c1.4-0.6,2.5-0.8,4.9,0.7c1,0.6,2.1,0.7,2.3,0.7h1.1c0,0,0,0,0,0c0.3,0,1.1,0,1.5-0.4c0.1-0.1,0.1-0.1,0.1-0.2
				C26.9,31.9,26.4,31.7,25.3,31.4z"/>
		</g>
		<g>
			<path class="st7" d="M20.5,50.3c0.1-0.1,0.3-0.3,0.3-0.4c0-0.1,0-0.1-0.1-0.2c-0.1-0.1-0.2-0.1-0.3-0.1c-0.2,0-0.5,0.2-1,0.5
				c-0.3,0.2-0.7,0.6-0.7,0.9c0,0.1,0.1,0.2,0.1,0.2c0.2,0.2,0.7,0.1,0.8,0.1C19.8,50.9,20.1,50.6,20.5,50.3z"/>
			<path class="st7" d="M22.2,50.9c0,0,0-0.1-0.1-0.2c0,0-0.2-0.2-0.7,0.1c-0.4,0.2-0.8,0.5-1,0.8c0.1,0.1,0.2,0.1,0.3,0.1
				c0.4,0.1,1-0.3,1.1-0.4c0,0,0,0,0,0C21.9,51.3,22.2,51,22.2,50.9z"/>
			<path class="st7" d="M17.1,48.5C17,48.5,17,48.5,17.1,48.5c-0.5,0-1,0.2-1.2,0.5c-0.2,0.2-0.1,0.3-0.1,0.4c0,0.1,0.2,0.2,0.5,0.2
				c0.1,0,0.1,0,0.2,0c0.1-0.4,0.4-0.7,0.6-0.9c0.1-0.1,0.1-0.1,0.2-0.2C17.2,48.6,17.1,48.5,17.1,48.5
				C17.1,48.5,17.1,48.5,17.1,48.5z"/>
			<path class="st7" d="M17.2,50.1c0,0.1,0,0.3,0.4,0.4c0.1,0,0.1,0,0.2,0.1c0.1-0.4,0.5-0.8,1-1.2c0.1-0.1,0.2-0.1,0.2-0.2
				c0,0,0-0.1,0-0.1c0-0.1-0.1-0.1-0.2-0.2c-0.1,0-0.2-0.1-0.3-0.1c-0.3,0-0.6,0.2-0.9,0.5C17.3,49.7,17.2,49.9,17.2,50.1z"/>
			<path class="st7" d="M27.6,49.3c0.2,0,0.4-0.1,0.6-0.2c0.1-0.1,0.2-0.3,0.2-0.4c-0.2-0.3-1.1-1.3-2.2-2c-0.5-0.3-1-0.6-1.5-0.8
				c-0.6-0.2-1.1-0.3-1.5-0.2c0,0,0,0,0,0c-0.1,0-0.3,0.1-0.5,0.3c-0.1,0.1-0.3,0.2-0.5,0.3c-0.5,0.3-1.2,0.5-1.7,0.5
				c-0.5,0-1.1,0.1-1.5-0.5c-0.2-0.3-0.3-0.7-0.2-1c0.1-0.3,0.5-0.5,1-0.8c0.2-0.1,0.4-0.2,0.6-0.3c0.2-0.2,0.4-0.3,0.6-0.4
				c0.2-0.1,0.4-0.3,0.7-0.5c0.1-0.1,0.3-0.2,0.4-0.2c-0.2,0-0.3,0-0.5-0.1c-0.8-0.1-1.4,0.2-2.2,0.8c-0.7,0.5-2.1,0.9-4.3,1.4
				c-2.1,0.4-4.9,0.8-8.5,1.2c0.1,0.4,0.2,0.8,0.3,1.2c0.5,1.4,1,2.8,1.7,4c1.3-0.6,4.4-2,6.8-3.3c0.5-0.5,1.2-0.7,1.8-0.6
				c0.1,0,0.6,0.1,0.9,0.4c0.4-0.1,0.8-0.1,1.1,0.1c0.4,0.2,0.6,0.5,0.6,0.6l0,0c0.5-0.2,0.9-0.1,1.3,0.3c0.2,0.2,0.4,0.4,0.4,0.7
				c0.5-0.1,0.8,0.1,1,0.3c0.4,0.3,0.4,0.7,0.4,0.9c0,0.2-0.1,0.3-0.2,0.5c0.2,0,0.5,0,0.7-0.1c0.1,0,0.2-0.1,0.2-0.1
				c-0.1-0.2-0.3-0.5-0.6-0.8c-0.1-0.1-0.1-0.2-0.1-0.3c0-0.1,0.1-0.2,0.1-0.3c0.2-0.2,0.4-0.1,0.6,0c0.4,0.5,0.7,0.9,0.8,1.2
				c0.2,0,0.4,0,0.6-0.2c0.1-0.1,0.2-0.2,0.2-0.3c0-0.1-0.2-0.3-0.4-0.6c-0.2-0.3-0.8-0.7-1-0.8c-0.1-0.1-0.2-0.2-0.2-0.3
				c0-0.1,0-0.2,0.1-0.3c0.1-0.1,0.2-0.2,0.3-0.2c0.1,0,0.2,0,0.3,0.1c0,0,0.8,0.5,1.1,1c0.3,0.3,0.5,0.6,0.6,0.8
				c0.3,0,0.5-0.1,0.7-0.3c0-0.1,0.1-0.1,0.1-0.2c-0.3-0.4-1.1-1.4-2.1-1.9c-0.1,0-0.2-0.1-0.2-0.2c0-0.1,0-0.2,0-0.3
				c0-0.1,0.1-0.2,0.2-0.2c0.1,0,0.2,0,0.3,0C26.3,47.7,27.2,48.8,27.6,49.3z"/>
			<path class="st7" d="M22.2,45.3c0.3-0.2,0.5-0.3,0.8-0.4c1.4-0.4,2.9,0.6,3.6,1.1c1.1,0.7,1.9,1.6,2.2,2c0,0,0,0,0.1,0.1l0,0
				c0,0,0,0,0,0c0.1,0.1,0.4,0.4,0.7,0.7c1.8,1.3,4.5,2.5,5.6,3c0.7-1.3,1.3-2.7,1.8-4.1c0.1-0.3,0.2-0.7,0.3-1.1
				c-2.3-0.1-4.7-0.6-6.3-1c-1.9-0.4-3.2-0.9-3.3-0.9c-0.4-0.1-0.7-0.3-1-0.4c-1-0.4-1.7-0.6-2.4-0.6c-0.1,0-0.2,0-0.3,0
				c-0.1,0-0.2,0-0.3,0l0,0c-0.7,0-1.2,0-1.6,0.3c-0.3,0.2-0.5,0.4-0.7,0.5c-0.2,0.2-0.4,0.3-0.6,0.5c-0.2,0.1-0.4,0.2-0.7,0.4
				c-0.2,0.1-0.5,0.2-0.6,0.3c0,0,0,0.1,0.1,0.2C19.8,46,20,46,20.4,46c0.4,0,0.9-0.2,1.3-0.4C21.9,45.5,22.1,45.4,22.2,45.3z"/>
		</g>
	</g>
	<g>
		<g>
			<path class="st1" d="M56,29.6l1.3-1.6c1.2,1,2.4,1.6,4,1.6c1.4,0,2.2-0.6,2.2-1.6v0c0-0.9-0.5-1.4-2.8-1.9
				c-2.7-0.6-4.2-1.4-4.2-3.7v0c0-2.1,1.8-3.6,4.3-3.6c1.8,0,3.3,0.6,4.5,1.6l-1.2,1.7c-1.1-0.8-2.3-1.3-3.4-1.3c-1.3,0-2,0.7-2,1.5
				v0c0,1,0.6,1.4,3,2c2.7,0.6,4,1.6,4,3.7v0c0,2.3-1.8,3.7-4.5,3.7C59.4,31.6,57.6,30.9,56,29.6z"/>
			<path class="st1" d="M67.4,26.7L67.4,26.7c0-2.7,1.9-5,4.6-5c3,0,4.5,2.4,4.5,5.1c0,0.2,0,0.4,0,0.6h-6.9
				c0.2,1.5,1.3,2.4,2.7,2.4c1.1,0,1.8-0.4,2.6-1.1l1.3,1.1c-0.9,1.1-2.1,1.8-3.9,1.8C69.5,31.6,67.4,29.6,67.4,26.7z M74.4,26
				c-0.1-1.4-1-2.5-2.4-2.5c-1.3,0-2.3,1-2.5,2.5H74.4z"/>
			<path class="st1" d="M78,26.7L78,26.7c0-2.7,2.1-5,4.9-5c1.8,0,2.9,0.7,3.8,1.6l-1.3,1.5c-0.7-0.7-1.4-1.2-2.5-1.2
				c-1.6,0-2.7,1.4-2.7,3v0c0,1.7,1.2,3,2.8,3c1,0,1.8-0.5,2.5-1.2l1.3,1.3c-0.9,1-2,1.8-3.9,1.8C80.1,31.6,78,29.4,78,26.7z"/>
			<path class="st1" d="M88.6,21.9h2.2v2.1c0.6-1.4,1.7-2.4,3.3-2.3v2.3H94c-1.9,0-3.2,1.2-3.2,3.7v3.6h-2.2V21.9z"/>
			<path class="st1" d="M95,26.7L95,26.7c0-2.7,1.9-5,4.6-5c3,0,4.5,2.4,4.5,5.1c0,0.2,0,0.4,0,0.6h-6.9c0.2,1.5,1.3,2.4,2.7,2.4
				c1.1,0,1.8-0.4,2.6-1.1l1.3,1.1c-0.9,1.1-2.1,1.8-3.9,1.8C97.1,31.6,95,29.6,95,26.7z M102,26c-0.1-1.4-1-2.5-2.4-2.5
				c-1.3,0-2.3,1-2.5,2.5H102z"/>
			<path class="st1" d="M106.6,28.8v-5h-1.2v-1.9h1.2v-2.6h2.2v2.6h2.5v1.9h-2.5v4.6c0,0.8,0.4,1.2,1.2,1.2c0.5,0,0.9-0.1,1.3-0.3
				v1.8c-0.5,0.3-1.1,0.5-2,0.5C107.7,31.6,106.6,30.9,106.6,28.8z"/>
			<path class="st1" d="M119.1,31.4v-1.2c-0.6,0.8-1.6,1.4-3.1,1.4c-1.8,0-3.4-1-3.4-2.9v0c0-2.1,1.6-3.1,3.8-3.1
				c1.1,0,1.9,0.2,2.6,0.4v-0.2c0-1.3-0.8-2-2.3-2c-1.1,0-1.8,0.2-2.7,0.6l-0.6-1.7c1-0.5,2.1-0.8,3.6-0.8c2.8,0,4.2,1.5,4.2,4v5.6
				H119.1z M119.1,27.4c-0.6-0.2-1.3-0.4-2.2-0.4c-1.4,0-2.2,0.6-2.2,1.5v0c0,0.9,0.8,1.4,1.8,1.4c1.4,0,2.5-0.8,2.5-2V27.4z"/>
			<path class="st1" d="M123.6,21.9h2.2v2.1c0.6-1.4,1.7-2.4,3.3-2.3v2.3H129c-1.9,0-3.2,1.2-3.2,3.7v3.6h-2.2V21.9z"/>
			<path class="st1" d="M131,21.9h2.2v9.5H131V21.9z M133,17.8l2,0.9l-2.2,2.1h-1.6L133,17.8z"/>
			<path class="st1" d="M141.6,31.4v-1.2c-0.6,0.8-1.6,1.4-3.1,1.4c-1.8,0-3.4-1-3.4-2.9v0c0-2.1,1.6-3.1,3.8-3.1
				c1.1,0,1.9,0.2,2.6,0.4v-0.2c0-1.3-0.8-2-2.3-2c-1.1,0-1.8,0.2-2.7,0.6l-0.6-1.7c1-0.5,2.1-0.8,3.6-0.8c2.8,0,4.2,1.5,4.2,4v5.6
				H141.6z M141.6,27.4c-0.6-0.2-1.3-0.4-2.2-0.4c-1.4,0-2.2,0.6-2.2,1.5v0c0,0.9,0.8,1.4,1.8,1.4c1.4,0,2.5-0.8,2.5-2V27.4z"/>
			<path class="st1" d="M150.8,26.7L150.8,26.7c0-3.2,2.1-4.9,4.4-4.9c1.6,0,2.5,0.8,3.2,1.7v-5.1h2.2v13.1h-2.2v-1.6
				c-0.7,1-1.7,1.8-3.2,1.8C153,31.6,150.8,29.8,150.8,26.7z M158.5,26.7L158.5,26.7c0-1.9-1.3-3.1-2.7-3.1c-1.5,0-2.7,1.1-2.7,3v0
				c0,1.8,1.3,3,2.7,3C157.2,29.7,158.5,28.5,158.5,26.7z"/>
			<path class="st1" d="M162.6,26.7L162.6,26.7c0-2.7,1.9-5,4.6-5c3,0,4.5,2.4,4.5,5.1c0,0.2,0,0.4,0,0.6h-6.9
				c0.2,1.5,1.3,2.4,2.7,2.4c1.1,0,1.8-0.4,2.6-1.1l1.3,1.1c-0.9,1.1-2.1,1.8-3.9,1.8C164.7,31.6,162.6,29.6,162.6,26.7z M169.6,26
				c-0.1-1.4-1-2.5-2.4-2.5c-1.3,0-2.3,1-2.5,2.5H169.6z"/>
			<path class="st1" d="M179.2,18.9h2.3l3.8,5.9l3.8-5.9h2.3v12.5h-2.2v-9l-4,5.9h-0.1l-3.9-5.9v9h-2.2V18.9z"/>
			<path class="st1" d="M193.8,26.7L193.8,26.7c0-2.7,2.1-5,5-5c2.9,0,5,2.2,5,4.9v0c0,2.7-2.1,4.9-5.1,4.9
				C195.9,31.6,193.8,29.4,193.8,26.7z M201.7,26.7L201.7,26.7c0-1.7-1.2-3.1-2.9-3.1c-1.7,0-2.8,1.4-2.8,3v0c0,1.6,1.2,3,2.9,3
				C200.6,29.7,201.7,28.4,201.7,26.7z"/>
			<path class="st1" d="M205.4,26.7L205.4,26.7c0-3.2,2.1-4.9,4.4-4.9c1.6,0,2.5,0.8,3.2,1.7v-5.1h2.2v13.1H213v-1.6
				c-0.7,1-1.7,1.8-3.2,1.8C207.6,31.6,205.4,29.8,205.4,26.7z M213.1,26.7L213.1,26.7c0-1.9-1.3-3.1-2.7-3.1c-1.5,0-2.7,1.1-2.7,3
				v0c0,1.8,1.3,3,2.7,3C211.8,29.7,213.1,28.5,213.1,26.7z"/>
			<path class="st1" d="M217.2,26.7L217.2,26.7c0-2.7,1.9-5,4.6-5c3,0,4.5,2.4,4.5,5.1c0,0.2,0,0.4,0,0.6h-6.9
				c0.2,1.5,1.3,2.4,2.7,2.4c1.1,0,1.8-0.4,2.6-1.1l1.3,1.1c-0.9,1.1-2.1,1.8-3.9,1.8C219.3,31.6,217.2,29.6,217.2,26.7z M224.2,26
				c-0.1-1.4-1-2.5-2.4-2.5c-1.3,0-2.3,1-2.5,2.5H224.2z"/>
			<path class="st1" d="M228.4,21.9h2.2v2.1c0.6-1.4,1.7-2.4,3.3-2.3v2.3h-0.1c-1.9,0-3.2,1.2-3.2,3.7v3.6h-2.2V21.9z"/>
			<path class="st1" d="M235.6,21.9h2.2v1.5c0.6-0.9,1.5-1.7,3-1.7c2.1,0,3.4,1.4,3.4,3.6v6h-2.2V26c0-1.5-0.7-2.3-2-2.3
				c-1.3,0-2.1,0.9-2.1,2.3v5.3h-2.2V21.9z"/>
			<path class="st1" d="M246.5,18.4h2.3v2.1h-2.3V18.4z M246.6,21.9h2.2v9.5h-2.2V21.9z"/>
			<path class="st1" d="M251,29.9l5.5-6.2h-5.3v-1.8h8v1.5l-5.5,6.2h5.5v1.8H251V29.9z"/>
			<path class="st1" d="M267.1,31.4v-1.2c-0.6,0.8-1.6,1.4-3.1,1.4c-1.8,0-3.4-1-3.4-2.9v0c0-2.1,1.6-3.1,3.8-3.1
				c1.1,0,1.9,0.2,2.6,0.4v-0.2c0-1.3-0.8-2-2.3-2c-1.1,0-1.8,0.2-2.7,0.6l-0.6-1.7c1-0.5,2.1-0.8,3.6-0.8c2.8,0,4.2,1.5,4.2,4v5.6
				H267.1z M267.1,27.4c-0.6-0.2-1.3-0.4-2.2-0.4c-1.4,0-2.2,0.6-2.2,1.5v0c0,0.9,0.8,1.4,1.8,1.4c1.4,0,2.5-0.8,2.5-2V27.4z"/>
			<path class="st1" d="M271.1,26.7L271.1,26.7c0-2.7,2.1-5,4.9-5c1.8,0,2.9,0.7,3.8,1.6l-1.3,1.5c-0.7-0.7-1.4-1.2-2.5-1.2
				c-1.6,0-2.7,1.4-2.7,3v0c0,1.7,1.2,3,2.8,3c1,0,1.8-0.5,2.5-1.2l1.3,1.3c-0.9,1-2,1.8-3.9,1.8C273.2,31.6,271.1,29.4,271.1,26.7z
				"/>
			<path class="st1" d="M281.7,18.4h2.3v2.1h-2.3V18.4z M281.8,21.9h2.2v9.5h-2.2V21.9z"/>
			<path class="st1" d="M286.1,26.7L286.1,26.7c0-2.7,2.1-5,5-5c2.9,0,5,2.2,5,4.9v0c0,2.7-2.1,4.9-5.1,4.9
				C288.2,31.6,286.1,29.4,286.1,26.7z M294,26.7L294,26.7c0-1.7-1.2-3.1-2.9-3.1c-1.7,0-2.8,1.4-2.8,3v0c0,1.6,1.2,3,2.9,3
				C292.9,29.7,294,28.4,294,26.7z M292.1,17.8l2,0.9l-2.2,2.1h-1.6L292.1,17.8z"/>
			<path class="st1" d="M298.2,21.9h2.2v1.5c0.6-0.9,1.5-1.7,3-1.7c2.1,0,3.4,1.4,3.4,3.6v6h-2.2V26c0-1.5-0.7-2.3-2-2.3
				c-1.3,0-2.1,0.9-2.1,2.3v5.3h-2.2V21.9z"/>
		</g>
	</g>
</g>
</svg>
